<svg version="1.1" id="Layer_1" xmlns="http://www.w3.org/2000/svg" xmlns:xlink="http://www.w3.org/1999/xlink" x="0px" y="0px"
	 width="100%" viewBox="0 0 960 1193" enable-background="new 0 0 960 1193" xml:space="preserve">
<path fill="#F40407" opacity="1.000000" stroke="none" 
	d="
M262.000000,1194.000000 
	C246.312439,1194.000000 230.624878,1194.000000 214.647125,1193.594727 
	C213.513428,1192.796387 212.690857,1192.116211 211.823303,1192.052979 
	C196.754547,1190.953979 182.176712,1187.481934 167.802216,1183.030884 
	C151.842880,1178.088989 136.679764,1171.383179 122.143440,1163.100586 
	C107.140038,1154.552002 93.166908,1144.627319 80.552185,1132.898193 
	C73.888649,1126.702393 67.594429,1120.032227 61.734684,1113.070190 
	C55.433079,1105.583252 48.926708,1098.019287 44.132526,1089.568481 
	C35.861057,1074.988037 28.083664,1060.021606 21.485100,1044.623169 
	C12.202735,1022.961914 8.362504,999.826416 7.129448,976.398499 
	C6.313837,960.901978 7.287694,945.428162 9.864594,930.005493 
	C13.409873,908.787109 19.374796,888.394653 28.565348,868.990540 
	C37.787582,849.519409 48.926586,831.193420 63.987904,815.636292 
	C73.841980,805.457947 83.875565,795.346497 94.698868,786.239197 
	C109.884857,773.460876 127.699493,764.622620 145.167923,755.410217 
	C162.822052,746.099792 180.645859,737.111572 198.350510,727.896057 
	C205.408157,724.222412 212.345535,720.317688 219.462128,716.450500 
	C209.238831,714.948242 199.257233,713.522583 189.289169,712.008057 
	C169.640030,709.022461 151.009140,702.652344 133.020187,694.434570 
	C115.240891,686.312561 98.923248,675.845154 83.719559,663.466980 
	C70.333893,652.568970 58.566563,640.263977 47.913357,626.759583 
	C36.306919,612.046753 27.137131,595.882935 19.505136,578.868225 
	C12.082813,562.320984 6.888103,545.034241 3.914951,527.093750 
	C3.453825,524.311218 1.996596,521.693787 1.000002,519.000000 
	C1.000000,498.979095 1.000000,478.958221 1.401672,458.640137 
	C2.193523,457.667297 2.811552,457.031647 2.938059,456.309784 
	C4.009200,450.197998 4.691928,444.003448 6.047697,437.958557 
	C14.698030,399.389587 32.463394,365.393250 58.681568,335.965973 
	C72.530434,320.422028 88.124657,306.560089 106.213257,296.065979 
	C124.439987,285.491669 143.101700,275.656494 161.700439,265.736725 
	C187.972153,251.724518 214.347748,237.906723 240.704391,224.054230 
	C259.958923,213.934433 279.271149,203.924423 298.527130,193.807312 
	C318.514801,183.305771 338.451660,172.707474 358.436768,162.200958 
	C377.835205,152.002853 397.272308,141.878296 416.682251,131.702042 
	C444.065857,117.345329 471.441833,102.974174 498.817688,88.602669 
	C517.647400,78.717621 536.426392,68.734589 555.309143,58.952026 
	C579.984009,46.168762 604.590759,33.239765 629.507019,20.941088 
	C649.093140,11.273336 670.060303,5.810310 691.703003,2.921230 
	C692.539246,2.809603 693.237488,1.663871 694.000000,1.000001 
	C713.687561,1.000000 733.375122,1.000000 753.349548,1.400210 
	C755.644348,2.215125 757.646118,2.662696 759.661194,3.039452 
	C779.081970,6.670577 798.065369,11.572316 816.286865,19.550894 
	C847.085266,33.036518 873.968506,51.666065 896.435852,76.812416 
	C912.372864,94.649757 925.261292,114.272858 935.095642,136.077789 
	C946.865417,162.173965 953.418457,189.544540 954.762756,217.969116 
	C955.431030,232.100571 954.997681,246.579773 952.618286,260.483307 
	C949.778259,277.078369 945.284668,293.558441 939.781372,309.492157 
	C930.442505,336.530823 915.092896,360.292236 895.936340,381.481262 
	C876.333008,403.164429 853.023926,420.052856 827.113037,433.458313 
	C802.848145,446.012146 778.613098,458.623810 754.395386,471.268433 
	C750.123169,473.499054 746.000610,476.016510 741.980286,478.304016 
	C749.739136,479.199493 757.603516,479.597961 765.250366,481.102173 
	C778.657349,483.739502 792.391235,485.785767 805.142700,490.410919 
	C820.688049,496.049438 835.848572,503.221252 850.300415,511.296082 
	C874.188293,524.643188 894.407959,542.767029 911.465881,564.129089 
	C924.339905,580.251465 935.062988,597.801758 943.019958,616.957153 
	C950.746887,635.558838 956.668457,654.630554 959.080444,674.705200 
	C959.180115,675.535034 960.336121,676.237976 961.000000,677.000000 
	C961.000000,696.354248 961.000000,715.708435 960.598022,735.360107 
	C959.773071,737.831482 959.490784,740.044250 958.904480,742.173279 
	C954.632629,757.684814 951.109436,773.462952 945.805176,788.616150 
	C936.797302,814.350281 922.128662,836.983398 904.083496,857.312500 
	C883.324890,880.698730 858.303223,898.575256 830.571350,912.839722 
	C811.090271,922.860107 791.723328,933.103149 772.330750,943.295044 
	C752.352173,953.794861 732.417053,964.377441 712.439209,974.878601 
	C693.046997,985.072021 673.614502,995.188965 654.218384,1005.374878 
	C634.382080,1015.791870 614.575134,1026.264648 594.742737,1036.688965 
	C575.203796,1046.959351 555.642700,1057.187378 536.103149,1067.456421 
	C516.268921,1077.880371 496.459229,1088.351074 476.619904,1098.765259 
	C457.221985,1108.947632 437.807404,1119.098633 418.387177,1129.238403 
	C395.482483,1141.197510 372.490143,1152.991089 349.670258,1165.109619 
	C322.703339,1179.430298 294.348480,1189.134521 263.829071,1192.092285 
	C263.164001,1192.156738 262.607269,1193.339111 262.000000,1194.000000 
M350.934814,501.500000 
	C350.934814,594.527832 350.934814,687.555664 350.934814,781.276794 
	C450.640625,720.010254 549.542786,659.237549 649.337524,597.916382 
	C549.295105,536.153992 450.389526,475.093353 350.934814,413.693756 
	C350.934814,443.212280 350.934814,471.856140 350.934814,501.500000 
z"/>
<path fill="#000000" opacity="1.000000" stroke="none" 
	d="
M262.468658,1194.000000 
	C262.607269,1193.339111 263.164001,1192.156738 263.829071,1192.092285 
	C294.348480,1189.134521 322.703339,1179.430298 349.670258,1165.109619 
	C372.490143,1152.991089 395.482483,1141.197510 418.387177,1129.238403 
	C437.807404,1119.098633 457.221985,1108.947632 476.619904,1098.765259 
	C496.459229,1088.351074 516.268921,1077.880371 536.103149,1067.456421 
	C555.642700,1057.187378 575.203796,1046.959351 594.742737,1036.688965 
	C614.575134,1026.264648 634.382080,1015.791870 654.218384,1005.374878 
	C673.614502,995.188965 693.046997,985.072021 712.439209,974.878601 
	C732.417053,964.377441 752.352173,953.794861 772.330750,943.295044 
	C791.723328,933.103149 811.090271,922.860107 830.571350,912.839722 
	C858.303223,898.575256 883.324890,880.698730 904.083496,857.312500 
	C922.128662,836.983398 936.797302,814.350281 945.805176,788.616150 
	C951.109436,773.462952 954.632629,757.684814 958.904480,742.173279 
	C959.490784,740.044250 959.773071,737.831482 960.598022,735.828735 
	C961.000000,888.608948 961.000000,1041.217896 961.000000,1194.000000 
	C728.312439,1194.000000 495.624878,1194.000000 262.468658,1194.000000 
z"/>
<path fill="#000000" opacity="1.000000" stroke="none" 
	d="
M693.531372,1.000001 
	C693.237488,1.663871 692.539246,2.809603 691.703003,2.921230 
	C670.060303,5.810310 649.093140,11.273336 629.507019,20.941088 
	C604.590759,33.239765 579.984009,46.168762 555.309143,58.952026 
	C536.426392,68.734589 517.647400,78.717621 498.817688,88.602669 
	C471.441833,102.974174 444.065857,117.345329 416.682251,131.702042 
	C397.272308,141.878296 377.835205,152.002853 358.436768,162.200958 
	C338.451660,172.707474 318.514801,183.305771 298.527130,193.807312 
	C279.271149,203.924423 259.958923,213.934433 240.704391,224.054230 
	C214.347748,237.906723 187.972153,251.724518 161.700439,265.736725 
	C143.101700,275.656494 124.439987,285.491669 106.213257,296.065979 
	C88.124657,306.560089 72.530434,320.422028 58.681568,335.965973 
	C32.463394,365.393250 14.698030,399.389587 6.047697,437.958557 
	C4.691928,444.003448 4.009200,450.197998 2.938059,456.309784 
	C2.811552,457.031647 2.193523,457.667297 1.401672,458.171448 
	C1.000000,305.724609 1.000000,153.449234 1.000000,1.000000 
	C231.687531,1.000000 462.375122,1.000000 693.531372,1.000001 
z"/>
<path fill="#000000" opacity="1.000000" stroke="none" 
	d="
M1.000002,519.468628 
	C1.996596,521.693787 3.453825,524.311218 3.914951,527.093750 
	C6.888103,545.034241 12.082813,562.320984 19.505136,578.868225 
	C27.137131,595.882935 36.306919,612.046753 47.913357,626.759583 
	C58.566563,640.263977 70.333893,652.568970 83.719559,663.466980 
	C98.923248,675.845154 115.240891,686.312561 133.020187,694.434570 
	C151.009140,702.652344 169.640030,709.022461 189.289169,712.008057 
	C199.257233,713.522583 209.238831,714.948242 219.462128,716.450500 
	C212.345535,720.317688 205.408157,724.222412 198.350510,727.896057 
	C180.645859,737.111572 162.822052,746.099792 145.167923,755.410217 
	C127.699493,764.622620 109.884857,773.460876 94.698868,786.239197 
	C83.875565,795.346497 73.841980,805.457947 63.987904,815.636292 
	C48.926586,831.193420 37.787582,849.519409 28.565348,868.990540 
	C19.374796,888.394653 13.409873,908.787109 9.864594,930.005493 
	C7.287694,945.428162 6.313837,960.901978 7.129448,976.398499 
	C8.362504,999.826416 12.202735,1022.961914 21.485100,1044.623169 
	C28.083664,1060.021606 35.861057,1074.988037 44.132526,1089.568481 
	C48.926708,1098.019287 55.433079,1105.583252 61.734684,1113.070190 
	C67.594429,1120.032227 73.888649,1126.702393 80.552185,1132.898193 
	C93.166908,1144.627319 107.140038,1154.552002 122.143440,1163.100586 
	C136.679764,1171.383179 151.842880,1178.088989 167.802216,1183.030884 
	C182.176712,1187.481934 196.754547,1190.953979 211.823303,1192.052979 
	C212.690857,1192.116211 213.513428,1192.796387 214.178467,1193.594727 
	C143.034988,1194.000000 72.069969,1194.000000 1.000000,1194.000000 
	C1.000000,969.312439 1.000000,744.624878 1.000002,519.468628 
z"/>
<path fill="#000000" opacity="1.000000" stroke="none" 
	d="
M961.000000,676.531372 
	C960.336121,676.237976 959.180115,675.535034 959.080444,674.705200 
	C956.668457,654.630554 950.746887,635.558838 943.019958,616.957153 
	C935.062988,597.801758 924.339905,580.251465 911.465881,564.129089 
	C894.407959,542.767029 874.188293,524.643188 850.300415,511.296082 
	C835.848572,503.221252 820.688049,496.049438 805.142700,490.410919 
	C792.391235,485.785767 778.657349,483.739502 765.250366,481.102173 
	C757.603516,479.597961 749.739136,479.199493 741.980286,478.304016 
	C746.000610,476.016510 750.123169,473.499054 754.395386,471.268433 
	C778.613098,458.623810 802.848145,446.012146 827.113037,433.458313 
	C853.023926,420.052856 876.333008,403.164429 895.936340,381.481262 
	C915.092896,360.292236 930.442505,336.530823 939.781372,309.492157 
	C945.284668,293.558441 949.778259,277.078369 952.618286,260.483307 
	C954.997681,246.579773 955.431030,232.100571 954.762756,217.969116 
	C953.418457,189.544540 946.865417,162.173965 935.095642,136.077789 
	C925.261292,114.272858 912.372864,94.649757 896.435852,76.812416 
	C873.968506,51.666065 847.085266,33.036518 816.286865,19.550894 
	C798.065369,11.572316 779.081970,6.670577 759.661194,3.039452 
	C757.646118,2.662696 755.644348,2.215125 753.818237,1.400210 
	C822.965820,1.000000 891.931580,1.000000 961.000000,1.000000 
	C961.000000,226.020889 961.000000,451.041779 961.000000,676.531372 
z"/>
<path fill="#FFFFFF" opacity="1.000000" stroke="none" 
	d="
M350.934814,501.000000 
	C350.934814,471.856140 350.934814,443.212280 350.934814,413.693756 
	C450.389526,475.093353 549.295105,536.153992 649.337524,597.916382 
	C549.542786,659.237549 450.640625,720.010254 350.934814,781.276794 
	C350.934814,687.555664 350.934814,594.527832 350.934814,501.000000 
z"/>
</svg>