<svg version="1.1" id="Layer_1" xmlns="http://www.w3.org/2000/svg" xmlns:xlink="http://www.w3.org/1999/xlink" x="0px" y="0px"
	 width="100%" viewBox="0 0 888 542" enable-background="new 0 0 888 542" xml:space="preserve">
<path fill="#F0F8FB" opacity="1.000000" stroke="none" 
	d="
M577.000000,543.000000 
	C384.666656,543.000000 192.833328,543.000000 1.000000,543.000000 
	C1.000000,362.333344 1.000000,181.666672 1.000000,1.000000 
	C297.000000,1.000000 593.000000,1.000000 889.000000,1.000000 
	C889.000000,181.666672 889.000000,362.333344 889.000000,543.000000 
	C785.166687,543.000000 681.333313,543.000000 577.000000,543.000000 
M631.801208,153.582184 
	C631.110352,153.147751 630.419434,152.713318 629.985352,152.015945 
	C629.985352,152.015945 629.716675,152.266708 629.848816,151.553436 
	C625.492676,148.113541 621.136597,144.673630 616.997559,141.009644 
	C616.997559,141.009644 616.779541,141.236557 616.819763,140.521027 
	C616.311523,139.915344 615.909912,139.150772 615.279236,138.727631 
	C604.526367,131.513016 592.664978,127.301048 579.798218,126.072556 
	C572.908203,125.414726 571.777527,124.309875 570.900208,117.362129 
	C570.618896,115.134399 569.270813,113.041382 568.176941,110.279572 
	C568.145203,109.849159 568.113525,109.418747 568.606567,108.512482 
	C567.866028,103.816132 567.169556,99.098701 562.495300,95.910995 
	C562.495300,95.910995 562.465027,95.567841 562.741638,94.858482 
	C562.041565,94.004333 561.341431,93.150185 561.003418,92.015572 
	C561.003418,92.015572 560.638245,92.290138 560.875183,91.548294 
	C559.131531,89.499306 557.387817,87.450317 555.717651,85.281769 
	C555.717651,85.281769 555.590942,85.342072 555.772095,84.632881 
	C555.095520,84.174660 554.418945,83.716446 554.001038,83.012878 
	C554.001038,83.012878 553.736023,83.250526 553.863647,82.538788 
	C553.379333,81.702309 553.010376,80.767250 552.392700,80.044807 
	C547.134949,73.895096 540.280396,70.566757 532.819458,67.551697 
	C518.659180,61.829300 504.986237,63.005898 491.198425,68.108643 
	C490.419830,68.396790 489.980164,69.600670 489.313141,70.328362 
	C489.313141,70.328362 489.299072,70.412903 488.566254,70.154137 
	C487.757416,70.853088 486.948578,71.552048 485.887238,72.460381 
	C485.887238,72.460381 485.561035,72.494690 484.804718,72.221313 
	C482.541260,73.400200 479.852325,74.145493 478.109955,75.855347 
	C475.190521,78.720322 472.874481,82.200203 470.117706,85.749397 
	C470.117706,85.749397 469.792450,85.941116 469.129517,86.027512 
	C465.867249,90.655243 461.788025,94.928421 459.580902,100.014069 
	C457.524872,104.751579 457.460938,110.353653 456.599548,116.036766 
	C456.604553,116.356071 456.534210,116.657799 455.733459,117.386703 
	C455.113251,120.431602 454.493042,123.476509 452.976685,126.733452 
	C440.026672,126.657700 427.076691,126.581947 414.040710,125.728783 
	C412.332306,117.870682 411.104614,109.865425 408.758575,102.202538 
	C406.984497,96.407776 404.670074,90.453926 398.427795,86.786873 
	C398.148529,86.368538 397.869293,85.950203 397.768707,84.796227 
	C397.363617,83.923515 397.133850,82.898125 396.526947,82.201111 
	C388.224518,72.665489 377.554565,66.518097 365.407654,64.418785 
	C349.765076,61.715328 334.812897,65.281563 321.669861,74.471870 
	C318.632935,76.595444 316.671631,80.257263 314.000031,83.000305 
	C314.000031,83.000305 314.213104,83.213470 313.502319,83.149254 
	C313.105347,83.859856 312.708374,84.570457 312.077026,85.087845 
	C312.077026,85.087845 312.284088,85.310081 311.585327,85.188957 
	C311.281677,85.303284 310.885529,85.331596 310.687744,85.544350 
	C303.156921,93.644333 299.986298,103.863792 297.211182,114.162689 
	C296.144531,118.121193 296.268066,122.400414 295.054962,126.755417 
	C293.681824,126.758125 292.308685,126.760834 290.356415,126.245850 
	C289.206604,126.170395 288.042908,125.940903 286.909149,126.043221 
	C275.145630,127.104874 264.580475,131.652893 254.516434,137.492615 
	C253.134415,138.294525 252.295090,140.031723 250.973206,141.575745 
	C250.973206,141.575745 250.649307,141.653961 249.924316,141.328552 
	C244.413101,143.239288 240.233566,146.564392 237.998520,152.050339 
	C237.998520,152.050339 238.287842,152.289429 237.584518,152.192230 
	C235.706070,154.616882 233.827621,157.041534 231.573776,159.817810 
	C231.425522,159.903946 231.277283,159.990067 230.417969,160.075424 
	C228.749161,162.828308 227.080368,165.581177 225.030472,168.022293 
	C225.030472,168.022293 225.398972,168.348801 224.647308,168.442139 
	C224.232956,169.488754 223.818604,170.535385 223.394470,171.719681 
	C223.394470,171.719681 223.292236,171.812424 222.574203,171.976349 
	C219.360825,178.293488 215.830948,184.476074 213.064606,190.983261 
	C211.632660,194.351593 211.554169,198.295319 210.892822,202.631378 
	C210.762070,203.043121 210.631317,203.454849 209.899185,204.134323 
	C209.561829,206.411316 209.224472,208.688309 208.893890,211.768555 
	C208.756531,212.829727 208.619171,213.890884 207.797485,215.179489 
	C207.222290,218.102188 205.965164,221.082718 206.207199,223.936096 
	C206.796814,230.887268 204.653885,236.695328 200.606781,242.138382 
	C199.766159,243.268951 199.830688,245.072556 199.438995,246.882965 
	C199.438995,246.882965 199.225281,247.120285 198.499176,247.150681 
	C197.498520,249.215195 196.497879,251.279724 195.410004,253.360138 
	C195.410004,253.360138 195.461884,253.432037 194.720154,253.459732 
	C193.721237,255.532867 192.722321,257.605988 191.573593,260.249573 
	C191.107620,260.869293 190.641632,261.488983 189.430634,262.098114 
	C188.402954,264.216858 187.375259,266.335602 186.317154,268.788116 
	C186.317154,268.788116 186.104736,269.047363 185.367493,269.122253 
	C184.960800,270.157196 184.554092,271.192169 184.035645,272.808167 
	C183.472610,273.610809 182.909592,274.413422 181.565948,275.219421 
	C181.219223,276.264618 180.872513,277.309784 180.459335,278.394958 
	C180.459335,278.394958 180.483154,278.468781 179.767075,278.430786 
	C178.097229,281.205780 176.427399,283.980774 174.160507,287.084717 
	C173.223007,289.211761 172.285507,291.338806 171.311493,293.791534 
	C171.311493,293.791534 171.095810,294.038300 170.403534,294.091980 
	C168.997482,296.747589 167.591431,299.403198 166.044479,302.658569 
	C165.980377,303.060333 165.916275,303.462128 165.997131,303.954895 
	C165.997131,303.954895 165.882904,303.826447 165.500076,303.926147 
	C165.500076,303.926147 165.135818,304.080505 164.435623,304.094025 
	C160.283554,310.656769 156.102829,317.201904 152.039383,323.819061 
	C151.746155,324.296570 152.307999,325.299133 152.266174,326.311157 
	C152.266174,326.311157 152.298218,326.636353 151.961105,326.787354 
	C151.755615,326.962006 151.667709,327.183350 151.170837,327.583771 
	C151.020416,327.684967 150.869980,327.786163 150.056137,328.059723 
	C147.802887,330.023712 145.264557,331.847687 146.320435,335.817169 
	C146.320435,335.817169 146.045593,336.030090 145.334686,336.046387 
	C144.018463,338.508179 142.702240,340.970001 141.150360,344.048096 
	C140.880325,344.640167 140.610306,345.232208 139.466080,345.609833 
	C124.367386,342.772003 110.728584,346.384521 98.581848,355.443024 
	C71.510834,375.631531 66.768394,414.780609 87.904747,442.139587 
	C102.665817,461.246460 127.349594,468.165619 148.591400,459.270172 
	C172.990250,449.052582 185.052597,425.379547 184.242264,401.005676 
	C183.899094,390.683746 180.352448,381.204956 176.572311,371.466736 
	C186.195328,355.514832 195.818344,339.562927 205.441345,323.611023 
	C205.861404,323.716217 206.281448,323.821411 206.701492,323.926575 
	C206.840118,325.474365 207.091293,327.021484 207.099945,328.569977 
	C207.185364,343.852570 206.939636,359.144623 207.423538,374.413818 
	C207.630707,380.950806 209.333145,387.440399 210.241852,394.725372 
	C210.444397,395.467651 210.646957,396.209900 210.558411,397.659363 
	C212.969269,404.853851 214.509598,412.508331 218.007538,419.128448 
	C222.558258,427.741058 228.663788,435.532166 234.081940,443.899689 
	C234.081940,443.899689 234.305420,443.906647 234.322998,444.563995 
	C238.161728,448.106323 242.000458,451.648682 246.005630,455.668030 
	C246.298218,455.809692 246.590805,455.951355 247.079254,456.647064 
	C247.725113,457.009644 248.370987,457.372253 249.279449,458.083313 
	C249.279449,458.083313 249.704147,458.183319 249.952301,458.808014 
	C253.975784,461.118713 257.999268,463.429413 262.331329,466.071198 
	C262.331329,466.071198 262.777832,466.145203 263.017212,466.791321 
	C274.015747,472.441803 285.649719,475.174500 298.932251,474.705383 
	C308.609406,474.588348 318.286560,474.471283 328.830078,474.746429 
	C329.327728,474.784515 329.825409,474.855927 330.323059,474.855988 
	C397.925323,474.863129 465.527557,474.867950 533.129822,474.845978 
	C534.432922,474.845551 535.735901,474.526611 537.926514,474.644501 
	C547.937256,474.563751 557.947998,474.482971 568.839233,474.746948 
	C571.316711,474.736511 573.802734,474.856323 576.270081,474.692993 
	C586.546082,474.012756 596.331299,471.615448 605.642517,466.056976 
	C605.642517,466.056976 605.969238,465.735016 606.688354,465.809387 
	C615.639587,461.436523 623.943420,456.214600 630.475464,447.843475 
	C630.660645,447.559906 630.845764,447.276337 631.635254,446.854462 
	C632.310059,445.902496 632.984924,444.950531 634.051880,443.756378 
	C634.051880,443.756378 634.219421,443.326996 634.867493,443.137970 
	C640.103943,434.774506 646.027893,426.748749 650.355286,417.938782 
	C653.707214,411.114563 655.062439,403.309570 657.621460,395.302246 
	C657.612061,394.832550 657.602722,394.362854 658.109680,393.359863 
	C658.574097,391.095367 659.385864,388.840393 659.448242,386.564880 
	C659.970825,367.494324 660.344360,348.419708 660.801147,329.347260 
	C660.845093,327.510925 661.149414,325.680817 661.332825,323.847839 
	C665.062988,327.885010 667.629333,332.089569 670.216248,336.281433 
	C676.034302,345.709198 681.862488,355.130707 687.813782,365.126434 
	C688.277222,365.746338 688.740723,366.366241 689.156128,367.697449 
	C690.055969,369.127106 690.955872,370.556763 691.482300,372.673737 
	C691.140198,373.606750 690.872375,374.575317 690.444946,375.467468 
	C681.829956,393.451233 681.311340,411.569000 689.415405,429.878326 
	C701.079285,456.230408 729.533630,469.279572 755.274841,460.039581 
	C785.986511,449.015442 801.615112,412.134796 788.706604,380.981903 
	C781.193481,362.850037 768.685791,350.281189 748.916077,345.259003 
	C747.951355,345.204590 746.986694,345.150177 745.092041,345.134735 
	C741.053040,345.114990 737.014099,345.095276 732.501404,344.475647 
	C728.750793,344.547028 726.637939,342.720825 725.378357,339.166199 
	C724.406555,336.423859 722.875122,333.798950 721.182373,331.412842 
	C718.892456,328.185059 716.210022,325.235779 713.474731,321.940308 
	C713.474731,321.940308 713.430725,321.626587 713.739746,320.865051 
	C713.595642,320.077148 713.660034,319.165466 713.276550,318.519714 
	C706.630005,307.325989 700.030518,296.101746 693.178467,285.034210 
	C691.039490,281.579346 688.185486,278.567139 685.776917,275.262573 
	C685.776917,275.262573 685.630371,275.285583 685.833435,274.550598 
	C680.730957,265.481140 675.857605,256.272552 670.458374,247.383301 
	C665.537231,239.281097 660.198120,231.528122 661.752075,221.249603 
	C661.950439,219.937271 660.282471,218.342773 659.258179,216.249939 
	C659.264404,215.808533 659.270630,215.367111 659.777771,214.333221 
	C658.898682,208.681229 658.973389,202.656982 656.942871,197.454361 
	C652.649963,186.454681 647.563049,175.726364 642.142761,165.226990 
	C640.351074,161.756439 636.536438,159.330215 633.638672,156.357635 
	C633.638672,156.357635 633.569946,156.348602 633.746033,155.638641 
	C633.060974,155.200867 632.375854,154.763092 631.941772,154.111496 
	C631.941772,154.111496 631.667725,154.294800 631.801208,153.582184 
z"/>
<path fill="#933229" opacity="1.000000" stroke="none" 
	d="
M713.430725,321.626587 
	C713.430725,321.626587 713.474731,321.940308 713.581726,322.419983 
	C717.909058,330.202637 722.129395,337.505585 726.041199,345.009705 
	C720.497131,347.808228 715.261658,350.405548 710.081665,352.647339 
	C714.124023,350.015442 715.268982,347.240570 712.270874,343.162598 
	C710.042419,340.131531 708.203369,336.799377 706.343628,333.514862 
	C701.812378,325.512573 697.484436,317.393341 692.852783,309.450562 
	C689.630554,303.924683 685.966858,298.658203 682.630798,293.196228 
	C676.717468,283.514252 670.937683,273.750610 665.004456,264.081024 
	C664.251587,262.854095 662.912598,261.986786 660.878296,260.016449 
	C660.463318,263.176178 660.065125,264.891937 660.043274,266.612457 
	C659.964783,272.772552 659.791870,278.944580 660.078064,285.092377 
	C660.356140,291.066833 660.343994,296.807465 664.274963,302.408539 
	C670.563477,311.368958 675.356506,321.369629 680.934875,330.840363 
	C686.872070,340.920013 692.987488,350.894684 698.889954,361.230957 
	C696.830811,363.871674 694.906738,366.196655 692.906006,368.614288 
	C691.787170,368.122223 690.495667,367.554169 689.204163,366.986145 
	C688.740723,366.366241 688.277222,365.746338 687.830444,364.450592 
	C686.564575,361.336700 685.369568,358.847626 683.984436,356.469299 
	C677.536072,345.397675 671.123718,334.302734 664.457458,323.362946 
	C663.459534,321.725311 661.761902,318.276306 658.567139,322.130920 
	C657.783447,323.883728 657.085449,325.554260 657.049438,327.238953 
	C656.640808,346.360077 656.294128,365.482849 656.043213,384.606659 
	C656.007263,387.350647 656.565125,390.102417 656.918213,393.061859 
	C657.095032,393.572510 657.296692,393.779205 657.593384,393.893158 
	C657.602722,394.362854 657.612061,394.832550 657.172363,395.744415 
	C655.517578,399.063477 654.297119,401.934235 653.109070,404.818359 
	C649.935303,412.523132 647.094055,420.385986 643.503174,427.890594 
	C640.923279,433.282288 637.349731,438.198608 634.219421,443.326996 
	C634.219421,443.326996 634.051880,443.756378 633.542358,443.912292 
	C632.365479,445.043091 631.698181,446.017914 631.030884,446.992767 
	C630.845764,447.276337 630.660645,447.559906 629.890381,447.946167 
	C623.814636,452.258759 618.333374,456.480988 612.828674,460.672607 
	C610.568054,462.393982 608.257202,464.049469 605.969238,465.734985 
	C605.969238,465.735016 605.642517,466.056976 605.007141,466.033630 
	C603.395386,466.149353 602.327515,466.078949 601.456665,466.459442 
	C591.366394,470.868347 580.978516,473.753265 569.819275,473.110596 
	C569.225830,473.076416 568.580078,473.950745 567.958740,474.402161 
	C557.947998,474.482971 547.937256,474.563751 537.314697,474.171753 
	C535.428711,473.473999 534.154602,473.052826 532.880310,473.052185 
	C466.047791,473.018738 399.215302,473.012329 332.382843,473.075043 
	C330.909393,473.076416 329.436737,473.909302 327.963715,474.354248 
	C318.286560,474.471283 308.609406,474.588348 298.333313,474.229004 
	C286.082184,471.216827 274.429993,468.681030 262.777832,466.145203 
	C262.777832,466.145203 262.331329,466.071198 262.126495,465.569824 
	C257.849152,462.773438 253.776657,460.478363 249.704147,458.183319 
	C249.704147,458.183319 249.279449,458.083313 249.106384,457.598083 
	C248.250000,456.772949 247.566681,456.432983 246.883392,456.093018 
	C246.590805,455.951355 246.298218,455.809692 245.861847,455.096924 
	C241.913864,450.986115 238.109650,447.446381 234.305420,443.906647 
	C234.305420,443.906647 234.081940,443.899689 234.035675,443.455872 
	C233.335388,441.858887 232.671295,440.711334 232.028961,439.551727 
	C227.176712,430.791931 222.113571,422.139648 217.561447,413.226440 
	C214.901245,408.017670 213.059464,402.390900 210.849487,396.952179 
	C210.646957,396.209900 210.444397,395.467651 210.517883,394.349487 
	C210.793915,393.973572 211.221756,393.878479 211.464844,393.567474 
	C211.260880,383.695068 210.645340,374.137695 210.416229,364.571075 
	C210.205978,355.793304 210.353531,347.004822 210.457367,338.222443 
	C210.520004,332.924622 210.885117,327.629486 210.888062,322.332977 
	C210.888489,321.564178 209.622528,320.794647 208.575409,320.012390 
	C206.545593,321.213074 204.314133,322.076172 203.314056,323.698395 
	C197.495712,333.136322 192.019669,342.784332 186.319931,352.296600 
	C182.905701,357.994568 179.294601,363.574615 175.614227,369.459961 
	C172.154510,365.315491 169.564636,362.213043 167.366684,359.083801 
	C169.443466,357.779602 171.661148,356.837952 172.716217,355.163696 
	C176.305786,349.467438 179.382401,343.450989 182.849976,337.673920 
	C186.333755,331.869812 190.117676,326.246490 193.643921,320.467010 
	C196.292557,316.125885 198.438217,311.449341 201.354980,307.307434 
	C205.148285,301.920837 207.695190,296.565186 207.176132,289.599121 
	C206.546387,281.147461 207.040161,272.613464 206.994202,264.115387 
	C206.987640,262.900879 206.679993,261.687988 206.364075,259.410004 
	C204.765381,261.620270 203.719177,262.864502 202.892349,264.240570 
	C192.770386,281.086487 182.657455,297.937897 172.591721,314.817444 
	C167.182663,323.888092 161.763153,332.956085 156.584778,342.158325 
	C155.250046,344.530182 154.808731,347.404816 153.596161,349.996155 
	C150.074554,347.158234 143.800888,348.374695 143.391373,341.887878 
	C144.352097,339.728241 145.198853,337.879181 146.045593,336.030090 
	C146.045593,336.030090 146.320435,335.817169 146.636078,335.466919 
	C148.185104,333.374023 149.418488,331.631409 150.991333,329.726624 
	C151.453003,328.860077 151.575195,328.155701 151.697388,327.451355 
	C151.667709,327.183350 151.755615,326.962006 152.533875,326.710541 
	C153.603531,325.555725 154.100433,324.477692 154.633331,323.104492 
	C155.301224,321.820038 155.933105,320.830780 156.893738,319.742523 
	C157.451645,319.035858 157.680832,318.428223 158.006805,317.509705 
	C159.238937,315.383606 160.374268,313.568390 161.720352,311.775757 
	C162.053543,311.736206 162.175964,311.674072 162.298386,311.611908 
	C162.157867,311.406281 162.017349,311.200623 161.951324,310.651550 
	C163.062469,308.232208 164.099136,306.156372 165.135818,304.080505 
	C165.135818,304.080505 165.500076,303.926147 165.729095,304.040222 
	C166.049438,304.118713 166.140747,304.083160 166.232025,304.047607 
	C166.105408,303.986389 165.978790,303.925140 165.852158,303.863892 
	C165.916275,303.462128 165.980377,303.060333 166.372589,302.354858 
	C167.071640,301.697998 167.442612,301.344910 168.092148,300.837830 
	C168.511307,300.296295 168.651901,299.908752 168.886505,299.202545 
	C169.685623,297.268707 170.390717,295.653503 171.095810,294.038300 
	C171.095810,294.038300 171.311493,293.791534 171.634308,293.511414 
	C172.971420,291.826172 173.985718,290.421021 175.346039,288.953552 
	C176.107864,287.903595 176.523651,286.915924 176.970062,285.952576 
	C177.000671,285.976868 176.923340,285.965210 177.182648,285.807678 
	C177.543900,285.269958 177.645813,284.889801 177.785873,284.269836 
	C178.106293,283.643280 178.388565,283.256561 178.982300,282.754578 
	C179.508286,282.041412 179.722824,281.443481 180.021027,280.547699 
	C180.230835,279.656158 180.356995,279.062469 180.483154,278.468781 
	C180.483154,278.468781 180.459335,278.394958 180.777435,278.230896 
	C181.512543,277.116577 181.929550,276.166321 182.346558,275.216064 
	C182.909592,274.413422 183.472610,273.610809 184.308990,272.515808 
	C184.582336,272.223450 185.004059,272.116302 185.154114,272.247314 
	C185.414246,272.073578 185.524307,271.768860 185.721573,271.162720 
	C185.907425,270.256683 186.006073,269.652039 186.104736,269.047363 
	C186.104736,269.047363 186.317154,268.788116 186.646851,268.485352 
	C188.042908,266.157959 189.109268,264.133331 190.175659,262.108704 
	C190.641632,261.488983 191.107620,260.869293 191.890503,259.844116 
	C192.716934,258.921448 193.226456,258.404266 194.035217,257.762878 
	C194.538971,257.051605 194.743500,256.464539 195.037720,255.573044 
	C195.238907,254.656403 195.350403,254.044220 195.461884,253.432037 
	C195.461884,253.432037 195.410004,253.360138 195.747345,253.209885 
	C197.131546,251.079849 198.178421,249.100067 199.225281,247.120285 
	C199.225281,247.120285 199.438995,246.882965 199.768799,246.582184 
	C201.707169,243.844238 203.315735,241.407089 205.284500,238.914978 
	C205.991486,238.066193 206.338272,237.272369 206.765625,236.114502 
	C207.318527,233.508026 207.790863,231.265579 208.616760,228.888626 
	C209.308517,222.823120 209.646729,216.892136 209.996246,210.562378 
	C210.171890,208.064606 210.336227,205.965591 210.500565,203.866592 
	C210.631317,203.454849 210.762070,203.043121 211.199249,202.127869 
	C213.253983,196.716400 215.002289,191.808426 217.141693,186.869904 
	C217.993958,185.173492 218.455093,183.507675 219.038239,181.516266 
	C220.593414,178.480148 222.026611,175.769623 223.739777,172.964417 
	C224.317352,172.185913 224.614914,171.502090 224.985840,170.508270 
	C225.172440,169.581787 225.285706,168.965286 225.398972,168.348801 
	C225.398972,168.348801 225.030472,168.022293 225.477936,168.128098 
	C226.430664,167.749207 226.935898,167.264526 227.795013,166.701630 
	C228.387619,165.987289 228.626343,165.351151 228.962738,164.441864 
	C229.666809,163.432770 230.273209,162.696777 231.230133,161.926270 
	C231.969650,161.161331 232.358658,160.430893 232.790680,159.740204 
	C232.833679,159.779938 232.723328,159.819122 233.022064,159.727570 
	C233.546875,159.082901 233.772919,158.529770 234.063324,157.865570 
	C234.127686,157.754471 234.370773,157.671799 234.710968,157.642517 
	C235.347656,157.050247 235.644150,156.487259 235.966888,155.962006 
	C235.993118,155.999741 235.922226,155.941071 236.258301,155.917526 
	C237.035614,155.211075 237.476822,154.528152 237.995590,153.586212 
	C238.144714,152.981247 238.216278,152.635345 238.287842,152.289429 
	C238.287842,152.289429 237.998520,152.050339 238.478485,152.096527 
	C242.855392,148.646454 246.752350,145.150208 250.649292,141.653961 
	C250.649307,141.653961 250.973206,141.575745 251.450562,141.448914 
	C260.940369,137.324402 269.864746,133.107483 279.007965,129.435394 
	C282.739624,127.936691 286.945435,127.618706 290.935547,126.763542 
	C292.308685,126.760834 293.681824,126.758125 295.835663,126.742256 
	C297.106750,125.464462 297.768219,124.237686 298.057831,122.928635 
	C299.306549,117.284683 299.712402,111.326767 301.805115,106.028191 
	C304.635956,98.860641 308.731293,92.192497 312.284088,85.310089 
	C312.284088,85.310081 312.077026,85.087845 312.482605,85.106522 
	C313.329834,84.487946 313.771454,83.850700 314.213104,83.213470 
	C314.213104,83.213470 314.000031,83.000305 314.430267,83.020454 
	C315.595215,82.370071 316.343048,81.713264 317.062775,81.027016 
	C333.757172,65.109215 357.035736,60.774517 377.783966,70.915054 
	C385.035187,74.459045 391.024475,80.585007 397.590057,85.531860 
	C397.869293,85.950203 398.148529,86.368538 398.651611,87.303955 
	C406.280426,98.594986 410.997864,110.302689 411.618439,123.527313 
	C411.666748,124.557236 413.254456,125.514931 414.126678,126.506187 
	C427.076691,126.581947 440.026672,126.657700 453.783386,126.742172 
	C455.189575,123.481255 455.789032,120.211609 456.388489,116.941956 
	C456.534210,116.657799 456.604553,116.356071 456.839508,115.573822 
	C459.368652,104.538429 464.206726,95.076843 469.792450,85.941116 
	C469.792450,85.941116 470.117706,85.749397 470.537354,85.489464 
	C475.824982,80.984581 480.693024,76.739639 485.561035,72.494690 
	C485.561035,72.494690 485.887238,72.460381 486.339783,72.379662 
	C487.627930,71.670265 488.463501,71.041588 489.299072,70.412903 
	C489.299072,70.412903 489.313141,70.328362 489.731262,70.379234 
	C504.055756,64.871216 518.353333,62.954781 532.264771,69.280922 
	C539.950073,72.775787 546.612488,78.520195 553.736023,83.250519 
	C553.736023,83.250526 554.001038,83.012878 553.911133,83.433548 
	C554.411072,84.350174 555.001038,84.846123 555.590942,85.342072 
	C555.590942,85.342072 555.717651,85.281769 555.730713,85.672028 
	C557.375183,88.138237 559.006714,90.214195 560.638245,92.290146 
	C560.638245,92.290138 561.003418,92.015572 560.806335,92.488647 
	C561.227844,93.830437 561.846436,94.699142 562.465027,95.567848 
	C562.465027,95.567841 562.495300,95.910995 562.595886,96.422356 
	C564.491577,100.951920 566.286682,104.970123 568.081787,108.988342 
	C568.113525,109.418747 568.145203,109.849159 568.185181,110.989304 
	C568.772034,115.796082 569.125977,119.945389 570.060120,123.959694 
	C570.356689,125.234192 572.059753,126.847145 573.358093,127.105774 
	C578.546997,128.139435 584.118774,127.883011 589.016541,129.611969 
	C598.461670,132.946182 607.545776,137.303467 616.779541,141.236557 
	C616.779541,141.236557 616.997559,141.009644 616.999207,141.433411 
	C621.239441,145.327011 625.478088,148.796860 629.716675,152.266693 
	C629.716675,152.266708 629.985352,152.015945 629.901245,152.447754 
	C630.434021,153.351318 631.050903,153.823059 631.667725,154.294800 
	C631.667725,154.294800 631.941772,154.111496 631.842651,154.522491 
	C632.352295,155.405197 632.961121,155.876907 633.569946,156.348602 
	C633.569946,156.348602 633.638672,156.357635 633.700684,156.723785 
	C642.997620,169.140244 650.733643,182.011627 654.888916,196.743378 
	C656.580261,202.739655 657.827515,208.861160 659.276794,214.925705 
	C659.270630,215.367111 659.264404,215.808533 659.236450,217.013718 
	C658.676819,227.859360 660.448547,237.280762 667.003479,245.371063 
	C667.728516,246.265945 668.183655,247.375504 668.800171,248.362869 
	C674.405701,257.339935 680.019226,266.312012 685.630371,275.285583 
	C685.630371,275.285583 685.776917,275.262573 685.713135,275.662689 
	C690.883972,284.859283 696.057434,293.692963 701.373596,302.439911 
	C705.296143,308.894104 709.404907,315.235138 713.430725,321.626587 
M494.208099,152.264282 
	C494.512115,151.828232 494.816101,151.392166 495.936127,151.080841 
	C497.702942,151.391617 499.467865,151.957870 501.236847,151.970840 
	C511.152008,152.043533 521.068176,151.982742 531.784180,152.169724 
	C538.571228,152.278244 545.361267,152.523834 552.142700,152.375626 
	C553.445312,152.347153 555.536438,151.007202 555.861877,149.870743 
	C557.656677,143.604782 559.016602,137.214279 560.720459,130.042007 
	C560.661194,128.070663 560.601929,126.099327 560.873352,123.296097 
	C559.105347,103.251579 550.170105,87.786659 531.615479,78.987030 
	C524.248474,75.493179 516.286865,73.762093 507.289490,76.048660 
	C506.561279,76.141487 505.833069,76.234306 504.323914,76.087044 
	C496.847687,77.351730 490.081848,80.070831 484.801056,85.837395 
	C484.801056,85.837395 484.667572,85.698143 483.985077,85.758743 
	C472.822449,94.534302 466.884705,106.366219 465.527496,120.154419 
	C464.889038,126.640747 466.550323,133.353439 467.174194,140.616150 
	C467.313049,141.025970 467.451874,141.435791 467.331177,142.565292 
	C468.866058,145.934830 470.400940,149.304382 472.100677,153.524780 
	C472.548737,153.965149 472.989136,154.779953 473.445984,154.789307 
	C479.579071,154.914810 485.716064,155.001068 491.847168,154.869095 
	C492.551178,154.853928 493.225647,153.464676 494.208099,152.264282 
M374.185760,153.364761 
	C374.738190,153.880859 375.281281,154.833694 375.844513,154.845749 
	C381.772614,154.972519 387.707031,155.045685 393.630768,154.856003 
	C394.457001,154.829544 395.235291,153.306198 396.297455,151.904221 
	C405.260345,135.147705 404.595764,118.282433 396.457611,101.548225 
	C386.477631,81.026665 362.700500,70.657639 341.913940,77.213013 
	C312.576447,86.465065 299.617462,120.522041 311.475891,148.751740 
	C311.999329,149.997742 313.412750,151.784241 314.398621,151.775909 
	C321.787781,151.713608 329.173615,151.262909 337.299713,151.120483 
	C338.232910,151.415634 339.172852,151.986542 340.098267,151.963928 
	C351.107086,151.694748 362.113708,151.337173 373.420868,151.355392 
	C373.666229,151.736618 373.911591,152.117844 374.185760,153.364761 
M586.311829,140.964325 
	C582.024475,140.627075 577.720642,140.425842 573.454956,139.909729 
	C570.016418,139.493698 569.163879,141.426071 567.997864,144.166000 
	C564.910522,151.420441 562.247681,159.134506 557.712158,165.440170 
	C545.237305,182.783691 528.180542,190.513748 506.452271,188.191284 
	C494.056641,186.866379 483.839996,181.657394 475.140106,173.437134 
	C466.430756,165.207962 460.584320,155.001923 457.869019,143.174683 
	C457.173370,140.144470 455.366180,138.881439 452.122101,138.945145 
	C443.294952,139.118469 434.462158,139.006561 425.631622,139.006897 
	C411.675629,139.007431 411.658997,139.001358 407.146301,151.930450 
	C403.782074,161.569153 398.051208,170.145035 390.392639,176.205185 
	C381.993958,182.850998 372.035034,187.160416 360.591736,188.371185 
	C343.563141,190.172913 329.637604,184.822281 317.377991,173.787827 
	C308.366486,165.676865 302.580200,155.545898 299.775574,143.733719 
	C298.900085,140.046524 296.909546,138.250641 292.916748,139.466934 
	C291.670837,139.846451 290.292816,139.985092 288.985565,139.939514 
	C279.956635,139.624695 271.928223,143.357086 264.542023,147.510284 
	C251.227356,154.996994 240.770218,165.447144 233.067200,179.165115 
	C224.144714,195.054764 219.210770,211.758072 219.092834,229.684540 
	C218.770599,278.666962 218.954956,327.652954 219.045197,376.637360 
	C219.052475,380.585815 219.379028,384.667114 220.405685,388.456818 
	C224.468811,403.454834 228.847092,418.093384 238.649399,430.957092 
	C253.198807,450.050476 271.623169,461.711334 295.505371,461.831635 
	C387.474060,462.295074 479.446442,462.017303 571.417419,462.059265 
	C588.644470,462.067139 603.726318,456.086517 616.412720,444.869171 
	C625.981018,436.408875 633.362000,426.126404 639.078735,414.409241 
	C644.742493,402.800507 648.527161,390.471771 648.646545,378.147736 
	C649.153137,325.878021 648.346375,273.595764 648.047607,221.317947 
	C647.980713,209.614273 644.460815,198.568268 639.869141,188.203476 
	C629.490601,164.776291 612.094360,148.512421 586.311829,140.964325 
M497.787201,175.820709 
	C516.490784,183.687683 538.446716,174.226883 545.601624,163.663818 
	C542.598816,161.628830 485.545471,161.086227 480.321655,163.042969 
	C482.032654,167.654083 487.954590,172.071075 497.787201,175.820709 
M373.492737,161.992294 
	C356.848511,162.113007 340.204163,162.225128 323.560394,162.387985 
	C322.937805,162.394073 322.320099,162.893143 321.400482,163.292664 
	C335.093048,177.290939 350.506866,181.875534 368.138733,176.586960 
	C375.867126,174.268875 383.205505,170.244644 389.041382,161.993484 
	C383.089569,161.993484 378.788757,161.993484 373.492737,161.992294 
z"/>
<path fill="#67645D" opacity="1.000000" stroke="none" 
	d="
M710.026123,353.002869 
	C715.261658,350.405548 720.497131,347.808228 726.348022,345.211212 
	C728.967285,345.166199 730.971191,345.120850 732.975098,345.075531 
	C737.014099,345.095276 741.053040,345.114990 745.750916,345.386108 
	C747.270691,345.721466 748.131653,345.805481 748.992554,345.889526 
	C768.685791,350.281189 781.193481,362.850037 788.706604,380.981903 
	C801.615112,412.134796 785.986511,449.015442 755.274841,460.039581 
	C729.533630,469.279572 701.079285,456.230408 689.415405,429.878326 
	C681.311340,411.569000 681.829956,393.451233 690.444946,375.467468 
	C690.872375,374.575317 691.140198,373.606750 691.971802,372.308105 
	C692.924561,371.787445 693.520569,371.766022 693.831116,371.457367 
	C698.090454,367.224030 702.325928,362.966125 706.492554,358.642212 
	C706.695496,358.431580 706.208801,357.556366 706.118347,356.660217 
	C707.471008,355.220795 708.748596,354.111816 710.026123,353.002869 
M695.876892,413.324829 
	C696.866516,416.496124 697.679321,419.735687 698.874207,422.827667 
	C706.833191,443.422668 728.920837,455.178497 748.667480,449.410553 
	C780.397644,440.142303 792.522034,400.317841 771.630066,373.986298 
	C756.903198,355.425110 732.803650,351.284088 714.945801,364.659576 
	C698.988342,376.611725 692.917847,392.848724 695.876892,413.324829 
z"/>
<path fill="#66645D" opacity="1.000000" stroke="none" 
	d="
M176.004608,371.985657 
	C180.352448,381.204956 183.899094,390.683746 184.242264,401.005676 
	C185.052597,425.379547 172.990250,449.052582 148.591400,459.270172 
	C127.349594,468.165619 102.665817,461.246460 87.904747,442.139587 
	C66.768394,414.780609 71.510834,375.631531 98.581848,355.443024 
	C110.728584,346.384521 124.367386,342.772003 140.099442,345.920349 
	C144.633514,348.442291 148.518570,350.682831 152.467957,352.803558 
	C152.750183,352.955139 153.503815,352.228882 154.354660,351.957397 
	C155.526520,352.591278 156.381973,353.178497 157.192642,354.135559 
	C158.190933,355.239105 159.234024,355.972748 160.488785,356.742584 
	C160.700470,356.778778 161.117554,356.881348 161.122437,357.246216 
	C162.535950,359.229980 163.821686,360.979828 165.378265,362.441162 
	C168.848541,365.699188 172.454147,368.813049 176.004608,371.985657 
M86.347252,397.192841 
	C84.788269,409.972504 87.889183,421.617249 95.058563,432.200562 
	C106.238655,448.704407 127.837540,455.441559 144.668274,447.764221 
	C171.888672,435.347565 181.452911,401.993988 164.954086,377.020935 
	C150.876175,355.712250 124.640274,350.599396 104.984901,365.398193 
	C94.643257,373.184662 88.794937,383.703888 86.347252,397.192841 
z"/>
<path fill="#8B514D" opacity="1.000000" stroke="none" 
	d="
M328.396912,474.550354 
	C329.436737,473.909302 330.909393,473.076416 332.382843,473.075043 
	C399.215302,473.012329 466.047791,473.018738 532.880310,473.052185 
	C534.154602,473.052826 535.428711,473.473999 536.870911,474.027618 
	C535.735901,474.526611 534.432922,474.845551 533.129822,474.845978 
	C465.527557,474.867950 397.925323,474.863129 330.323059,474.855988 
	C329.825409,474.855927 329.327728,474.784515 328.396912,474.550354 
z"/>
<path fill="#8B514D" opacity="1.000000" stroke="none" 
	d="
M176.288452,371.726196 
	C172.454147,368.813049 168.848541,365.699188 165.378265,362.441162 
	C163.821686,360.979828 162.535950,359.229980 161.467865,357.300690 
	C163.530518,357.697083 165.252640,358.403839 166.974762,359.110596 
	C169.564636,362.213043 172.154510,365.315491 175.614227,369.459961 
	C179.294601,363.574615 182.905701,357.994568 186.319931,352.296600 
	C192.019669,342.784332 197.495712,333.136322 203.314056,323.698395 
	C204.314133,322.076172 206.545593,321.213074 208.591309,320.478088 
	C209.628784,345.266968 207.308914,369.668762 211.221756,393.878479 
	C211.221756,393.878479 210.793915,393.973572 210.575043,393.962524 
	C209.333145,387.440399 207.630707,380.950806 207.423538,374.413818 
	C206.939636,359.144623 207.185364,343.852570 207.099945,328.569977 
	C207.091293,327.021484 206.840118,325.474365 206.701492,323.926575 
	C206.281448,323.821411 205.861404,323.716217 205.441345,323.611023 
	C195.818344,339.562927 186.195328,355.514832 176.288452,371.726196 
z"/>
<path fill="#8B514D" opacity="1.000000" stroke="none" 
	d="
M658.960327,322.055206 
	C661.761902,318.276306 663.459534,321.725311 664.457458,323.362946 
	C671.123718,334.302734 677.536072,345.397675 683.984436,356.469299 
	C685.369568,358.847626 686.564575,361.336700 687.766846,364.164764 
	C681.862488,355.130707 676.034302,345.709198 670.216248,336.281433 
	C667.629333,332.089569 665.062988,327.885010 661.332825,323.847839 
	C661.149414,325.680817 660.845093,327.510925 660.801147,329.347260 
	C660.344360,348.419708 659.970825,367.494324 659.448242,386.564880 
	C659.385864,388.840393 658.574097,391.095367 657.851562,393.626526 
	C657.296692,393.779205 657.095032,393.572510 656.960815,392.631348 
	C657.603271,386.947571 658.785278,381.912231 658.851379,376.862305 
	C659.090454,358.595917 658.954590,340.324646 658.960327,322.055206 
z"/>
<path fill="#E0C3C3" opacity="1.000000" stroke="none" 
	d="
M397.679382,85.164040 
	C391.024475,80.585007 385.035187,74.459045 377.783966,70.915054 
	C357.035736,60.774517 333.757172,65.109215 317.062775,81.027016 
	C316.343048,81.713264 315.595215,82.370071 314.537964,83.125916 
	C316.671631,80.257263 318.632935,76.595444 321.669861,74.471870 
	C334.812897,65.281563 349.765076,61.715328 365.407654,64.418785 
	C377.554565,66.518097 388.224518,72.665489 396.526947,82.201111 
	C397.133850,82.898125 397.363617,83.923515 397.679382,85.164040 
z"/>
<path fill="#E3C5C4" opacity="1.000000" stroke="none" 
	d="
M553.799805,82.894653 
	C546.612488,78.520195 539.950073,72.775787 532.264771,69.280922 
	C518.353333,62.954781 504.055756,64.871216 489.766052,70.404236 
	C489.980164,69.600670 490.419830,68.396790 491.198425,68.108643 
	C504.986237,63.005898 518.659180,61.829300 532.819458,67.551697 
	C540.280396,70.566757 547.134949,73.895096 552.392700,80.044807 
	C553.010376,80.767250 553.379333,81.702309 553.799805,82.894653 
z"/>
<path fill="#E3C5C4" opacity="1.000000" stroke="none" 
	d="
M685.731934,274.918091 
	C680.019226,266.312012 674.405701,257.339935 668.800171,248.362869 
	C668.183655,247.375504 667.728516,246.265945 667.003479,245.371063 
	C660.448547,237.280762 658.676819,227.859360 659.346924,217.328247 
	C660.282471,218.342773 661.950439,219.937271 661.752075,221.249603 
	C660.198120,231.528122 665.537231,239.281097 670.458374,247.383301 
	C675.857605,256.272552 680.730957,265.481140 685.731934,274.918091 
z"/>
<path fill="#E3C5C4" opacity="1.000000" stroke="none" 
	d="
M659.527283,214.629456 
	C657.827515,208.861160 656.580261,202.739655 654.888916,196.743378 
	C650.733643,182.011627 642.997620,169.140244 633.704712,156.758209 
	C636.536438,159.330215 640.351074,161.756439 642.142761,165.226990 
	C647.563049,175.726364 652.649963,186.454681 656.942871,197.454361 
	C658.973389,202.656982 658.898682,208.681229 659.527283,214.629456 
z"/>
<path fill="#E3C5C4" opacity="1.000000" stroke="none" 
	d="
M616.799683,140.878784 
	C607.545776,137.303467 598.461670,132.946182 589.016541,129.611969 
	C584.118774,127.883011 578.546997,128.139435 573.358093,127.105774 
	C572.059753,126.847145 570.356689,125.234192 570.060120,123.959694 
	C569.125977,119.945389 568.772034,115.796082 568.302124,111.292877 
	C569.270813,113.041382 570.618896,115.134399 570.900208,117.362129 
	C571.777527,124.309875 572.908203,125.414726 579.798218,126.072556 
	C592.664978,127.301048 604.526367,131.513016 615.279236,138.727631 
	C615.909912,139.150772 616.311523,139.915344 616.799683,140.878784 
z"/>
<path fill="#8B514D" opacity="1.000000" stroke="none" 
	d="
M634.543457,443.232483 
	C637.349731,438.198608 640.923279,433.282288 643.503174,427.890594 
	C647.094055,420.385986 649.935303,412.523132 653.109070,404.818359 
	C654.297119,401.934235 655.517578,399.063477 657.014282,396.063599 
	C655.062439,403.309570 653.707214,411.114563 650.355286,417.938782 
	C646.027893,426.748749 640.103943,434.774506 634.543457,443.232483 
z"/>
<path fill="#8B514D" opacity="1.000000" stroke="none" 
	d="
M210.703949,397.305786 
	C213.059464,402.390900 214.901245,408.017670 217.561447,413.226440 
	C222.113571,422.139648 227.176712,430.791931 232.028961,439.551727 
	C232.671295,440.711334 233.335388,441.858887 234.044800,443.344421 
	C228.663788,435.532166 222.558258,427.741058 218.007538,419.128448 
	C214.509598,412.508331 212.969269,404.853851 210.703949,397.305786 
z"/>
<path fill="#E3C5C4" opacity="1.000000" stroke="none" 
	d="
M713.585205,321.245819 
	C709.404907,315.235138 705.296143,308.894104 701.373596,302.439911 
	C696.057434,293.692963 690.883972,284.859283 685.654053,275.707581 
	C688.185486,278.567139 691.039490,281.579346 693.178467,285.034210 
	C700.030518,296.101746 706.630005,307.325989 713.276550,318.519714 
	C713.660034,319.165466 713.595642,320.077148 713.585205,321.245819 
z"/>
<path fill="#E0C3C3" opacity="1.000000" stroke="none" 
	d="
M311.934692,85.249527 
	C308.731293,92.192497 304.635956,98.860641 301.805115,106.028191 
	C299.712402,111.326767 299.306549,117.284683 298.057831,122.928635 
	C297.768219,124.237686 297.106750,125.464462 296.232849,126.631302 
	C296.268066,122.400414 296.144531,118.121193 297.211182,114.162689 
	C299.986298,103.863792 303.156921,93.644333 310.687744,85.544350 
	C310.885529,85.331596 311.281677,85.303284 311.934692,85.249527 
z"/>
<path fill="#E0C3C3" opacity="1.000000" stroke="none" 
	d="
M414.083679,126.117485 
	C413.254456,125.514931 411.666748,124.557236 411.618439,123.527313 
	C410.997864,110.302689 406.280426,98.594986 398.843903,87.466644 
	C404.670074,90.453926 406.984497,96.407776 408.758575,102.202538 
	C411.104614,109.865425 412.332306,117.870682 414.083679,126.117485 
z"/>
<path fill="#E0C3C3" opacity="1.000000" stroke="none" 
	d="
M290.645996,126.504700 
	C286.945435,127.618706 282.739624,127.936691 279.007965,129.435394 
	C269.864746,133.107483 260.940369,137.324402 251.566223,141.329010 
	C252.295090,140.031723 253.134415,138.294525 254.516434,137.492615 
	C264.580475,131.652893 275.145630,127.104874 286.909149,126.043221 
	C288.042908,125.940903 289.206604,126.170395 290.645996,126.504700 
z"/>
<path fill="#8B514D" opacity="1.000000" stroke="none" 
	d="
M568.398987,474.574554 
	C568.580078,473.950745 569.225830,473.076416 569.819275,473.110596 
	C580.978516,473.753265 591.366394,470.868347 601.456665,466.459442 
	C602.327515,466.078949 603.395386,466.149353 604.779907,466.064880 
	C596.331299,471.615448 586.546082,474.012756 576.270081,474.692993 
	C573.802734,474.856323 571.316711,474.736511 568.398987,474.574554 
z"/>
<path fill="#8B514D" opacity="1.000000" stroke="none" 
	d="
M262.897522,466.468262 
	C274.429993,468.681030 286.082184,471.216827 297.888824,474.085815 
	C285.649719,475.174500 274.015747,472.441803 262.897522,466.468262 
z"/>
<path fill="#E0C3C3" opacity="1.000000" stroke="none" 
	d="
M469.460999,85.984314 
	C464.206726,95.076843 459.368652,104.538429 456.799774,115.343002 
	C457.460938,110.353653 457.524872,104.751579 459.580902,100.014069 
	C461.788025,94.928421 465.867249,90.655243 469.460999,85.984314 
z"/>
<path fill="#E0C3C3" opacity="1.000000" stroke="none" 
	d="
M223.459793,173.059097 
	C222.026611,175.769623 220.593414,178.480148 218.755737,181.725769 
	C217.817703,183.807404 217.284149,185.353943 216.750580,186.900467 
	C215.002289,191.808426 213.253983,196.716400 211.184937,201.801727 
	C211.554169,198.295319 211.632660,194.351593 213.064606,190.983261 
	C215.830948,184.476074 219.360825,178.293488 223.031616,171.699234 
	C223.489014,171.422119 223.906235,171.556229 223.728073,171.912170 
	C223.519867,172.531769 223.489838,172.795425 223.459793,173.059097 
z"/>
<path fill="#E0C3C3" opacity="1.000000" stroke="none" 
	d="
M208.263184,229.023148 
	C207.790863,231.265579 207.318527,233.508026 206.484955,236.273895 
	C205.723907,237.521530 205.324097,238.245728 204.924301,238.969925 
	C203.315735,241.407089 201.707169,243.844238 199.788330,246.423676 
	C199.830688,245.072556 199.766159,243.268951 200.606781,242.138382 
	C204.653885,236.695328 206.796814,230.887268 206.207199,223.936096 
	C205.965164,221.082718 207.222290,218.102188 208.237305,215.471771 
	C208.539154,220.183746 208.401169,224.603439 208.263184,229.023148 
z"/>
<path fill="#E3C5C4" opacity="1.000000" stroke="none" 
	d="
M732.738281,344.775574 
	C730.971191,345.120850 728.967285,345.166199 726.656616,345.010010 
	C722.129395,337.505585 717.909058,330.202637 713.692383,322.533356 
	C716.210022,325.235779 718.892456,328.185059 721.182373,331.412842 
	C722.875122,333.798950 724.406555,336.423859 725.378357,339.166199 
	C726.637939,342.720825 728.750793,344.547028 732.738281,344.775574 
z"/>
<path fill="#8B514D" opacity="1.000000" stroke="none" 
	d="
M606.328735,465.772156 
	C608.257202,464.049469 610.568054,462.393982 612.828674,460.672607 
	C618.333374,456.480988 623.814636,452.258759 629.649902,448.043549 
	C623.943420,456.214600 615.639587,461.436523 606.328735,465.772156 
z"/>
<path fill="#8B514D" opacity="1.000000" stroke="none" 
	d="
M706.043213,356.990601 
	C706.208801,357.556366 706.695496,358.431580 706.492554,358.642212 
	C702.325928,362.966125 698.090454,367.224030 693.831116,371.457367 
	C693.520569,371.766022 692.924561,371.787445 692.158508,371.964417 
	C690.955872,370.556763 690.055969,369.127106 689.180176,367.341797 
	C690.495667,367.554169 691.787170,368.122223 692.906006,368.614288 
	C694.906738,366.196655 696.830811,363.871674 699.223022,361.191040 
	C701.808472,359.553802 703.925842,358.272217 706.043213,356.990601 
z"/>
<path fill="#E0C3C3" opacity="1.000000" stroke="none" 
	d="
M164.785721,304.087280 
	C164.099136,306.156372 163.062469,308.232208 161.807480,310.815918 
	C161.589172,311.323792 161.509613,311.753204 161.509613,311.753204 
	C160.374268,313.568390 159.238937,315.383606 157.732773,317.672272 
	C157.096298,318.710968 156.830627,319.276245 156.564972,319.841522 
	C155.933105,320.830780 155.301224,321.820038 154.345062,323.297455 
	C153.504623,324.542938 152.988449,325.300262 152.472290,326.057587 
	C152.307999,325.299133 151.746155,324.296570 152.039383,323.819061 
	C156.102829,317.201904 160.283554,310.656769 164.785721,304.087280 
z"/>
<path fill="#8B514D" opacity="1.000000" stroke="none" 
	d="
M154.038254,351.910767 
	C153.503815,352.228882 152.750183,352.955139 152.467957,352.803558 
	C148.518570,350.682831 144.633514,348.442291 140.536530,346.027588 
	C140.610306,345.232208 140.880325,344.640167 141.519135,343.609680 
	C142.351074,342.846985 142.814224,342.522705 143.277390,342.198425 
	C143.800888,348.374695 150.074554,347.158234 153.622009,350.305878 
	C154.018539,351.082184 154.028397,351.496490 154.038254,351.910767 
z"/>
<path fill="#E0C3C3" opacity="1.000000" stroke="none" 
	d="
M485.182861,72.358002 
	C480.693024,76.739639 475.824982,80.984581 470.630737,85.325417 
	C472.874481,82.200203 475.190521,78.720322 478.109955,75.855347 
	C479.852325,74.145493 482.541260,73.400200 485.182861,72.358002 
z"/>
<path fill="#8B514D" opacity="1.000000" stroke="none" 
	d="
M208.616760,228.888626 
	C208.401169,224.603439 208.539154,220.183746 208.579468,215.358047 
	C208.619171,213.890884 208.756531,212.829727 209.165070,211.383911 
	C209.619125,210.986557 209.802017,210.973862 209.984924,210.961151 
	C209.646729,216.892136 209.308517,222.823120 208.616760,228.888626 
z"/>
<path fill="#E0C3C3" opacity="1.000000" stroke="none" 
	d="
M250.286804,141.491241 
	C246.752350,145.150208 242.855392,148.646454 238.628784,152.208374 
	C240.233566,146.564392 244.413101,143.239288 250.286804,141.491241 
z"/>
<path fill="#E3C5C4" opacity="1.000000" stroke="none" 
	d="
M629.782715,151.910065 
	C625.478088,148.796860 621.239441,145.327011 616.890625,141.545441 
	C621.136597,144.673630 625.492676,148.113541 629.782715,151.910065 
z"/>
<path fill="#8B514D" opacity="1.000000" stroke="none" 
	d="
M234.314209,444.235321 
	C238.109650,447.446381 241.913864,450.986115 245.778641,454.858459 
	C242.000458,451.648682 238.161728,448.106323 234.314209,444.235321 
z"/>
<path fill="#8B514D" opacity="1.000000" stroke="none" 
	d="
M249.828217,458.495667 
	C253.776657,460.478363 257.849152,462.773438 261.972229,465.404297 
	C257.999268,463.429413 253.975784,461.118713 249.828217,458.495667 
z"/>
<path fill="#E3C5C4" opacity="1.000000" stroke="none" 
	d="
M568.344177,108.750412 
	C566.286682,104.970123 564.491577,100.951920 562.704224,96.556274 
	C567.169556,99.098701 567.866028,103.816132 568.344177,108.750412 
z"/>
<path fill="#E0C3C3" opacity="1.000000" stroke="none" 
	d="
M456.060974,117.164330 
	C455.789032,120.211609 455.189575,123.481255 454.231445,126.636154 
	C454.493042,123.476509 455.113251,120.431602 456.060974,117.164330 
z"/>
<path fill="#E0C3C3" opacity="1.000000" stroke="none" 
	d="
M230.879608,161.960785 
	C230.273209,162.696777 229.666809,163.432770 228.692871,164.623962 
	C228.030609,165.646072 227.735870,166.212952 227.441147,166.779831 
	C226.935898,167.264526 226.430664,167.749207 225.668488,168.283981 
	C227.080368,165.581177 228.749161,162.828308 230.761459,160.393616 
	C231.029846,161.128128 230.954727,161.544464 230.879608,161.960785 
z"/>
<path fill="#E0C3C3" opacity="1.000000" stroke="none" 
	d="
M167.813583,300.991791 
	C167.442612,301.344910 167.071640,301.697998 166.443039,302.054932 
	C167.591431,299.403198 168.997482,296.747589 170.749664,294.065125 
	C170.390717,295.653503 169.685623,297.268707 168.620056,299.369019 
	C168.110916,300.233368 167.962250,300.612579 167.813583,300.991791 
z"/>
<path fill="#E0C3C3" opacity="1.000000" stroke="none" 
	d="
M178.670837,282.869843 
	C178.388565,283.256561 178.106293,283.643280 177.548752,284.447601 
	C177.156769,285.231873 177.040054,285.598541 176.923340,285.965210 
	C176.923340,285.965210 177.000671,285.976868 176.733185,286.076141 
	C176.053726,286.514099 175.641739,286.852783 175.110428,287.083923 
	C174.991119,286.976379 174.757553,286.755768 174.757553,286.755768 
	C176.427399,283.980774 178.097229,281.205780 180.125122,278.449768 
	C180.356995,279.062469 180.230835,279.656158 179.739761,280.696503 
	C179.140182,281.718719 178.905502,282.294281 178.670837,282.869843 
z"/>
<path fill="#E0C3C3" opacity="1.000000" stroke="none" 
	d="
M143.391373,341.887878 
	C142.814224,342.522705 142.351074,342.846985 141.636978,343.301514 
	C142.702240,340.970001 144.018463,338.508179 145.690155,336.038239 
	C145.198853,337.879181 144.352097,339.728241 143.391373,341.887878 
z"/>
<path fill="#E0C3C3" opacity="1.000000" stroke="none" 
	d="
M234.370773,157.671799 
	C234.370773,157.671799 234.127686,157.754471 233.780945,157.979919 
	C233.197235,158.743286 232.960281,159.281204 232.723328,159.819122 
	C232.723328,159.819122 232.833679,159.779938 232.586853,159.697876 
	C232.340027,159.615829 231.949158,159.466187 231.949158,159.466187 
	C233.827621,157.041534 235.706070,154.616882 237.936188,152.240829 
	C238.216278,152.635345 238.144714,152.981247 237.713928,153.696106 
	C236.877213,154.690384 236.399719,155.315720 235.922211,155.941071 
	C235.922226,155.941071 235.993118,155.999741 235.676239,156.069672 
	C235.029846,156.650330 234.700302,157.161072 234.370773,157.671799 
z"/>
<path fill="#E3C5C4" opacity="1.000000" stroke="none" 
	d="
M560.756714,91.919220 
	C559.006714,90.214195 557.375183,88.138237 555.693970,85.731796 
	C557.387817,87.450317 559.131531,89.499306 560.756714,91.919220 
z"/>
<path fill="#E0C3C3" opacity="1.000000" stroke="none" 
	d="
M150.651871,329.888794 
	C149.418488,331.631409 148.185104,333.374023 146.681152,335.299011 
	C145.264557,331.847687 147.802887,330.023712 150.434875,328.306488 
	C150.759705,328.998444 150.705795,329.443604 150.651871,329.888794 
z"/>
<path fill="#E0C3C3" opacity="1.000000" stroke="none" 
	d="
M209.996246,210.562378 
	C209.802017,210.973862 209.619125,210.986557 209.161667,210.982269 
	C209.224472,208.688309 209.561829,206.411316 210.199875,204.000458 
	C210.336227,205.965591 210.171890,208.064606 209.996246,210.562378 
z"/>
<path fill="#E0C3C3" opacity="1.000000" stroke="none" 
	d="
M175.000000,289.015869 
	C173.985718,290.421021 172.971420,291.826172 171.652573,293.348572 
	C172.285507,291.338806 173.223007,289.211761 174.459030,286.920227 
	C174.757553,286.755768 174.991119,286.976379 175.060547,287.387390 
	C175.086655,288.204254 175.043335,288.610046 175.000000,289.015869 
z"/>
<path fill="#E0C3C3" opacity="1.000000" stroke="none" 
	d="
M189.803131,262.103394 
	C189.109268,264.133331 188.042908,266.157959 186.662048,268.318481 
	C187.375259,266.335602 188.402954,264.216858 189.803131,262.103394 
z"/>
<path fill="#E0C3C3" opacity="1.000000" stroke="none" 
	d="
M198.862228,247.135483 
	C198.178421,249.100067 197.131546,251.079849 195.790955,253.201935 
	C196.497879,251.279724 197.498520,249.215195 198.862228,247.135483 
z"/>
<path fill="#E0C3C3" opacity="1.000000" stroke="none" 
	d="
M193.735977,257.887085 
	C193.226456,258.404266 192.716934,258.921448 191.965408,259.558868 
	C192.722321,257.605988 193.721237,255.532867 195.091019,253.445892 
	C195.350403,254.044220 195.238907,254.656403 194.756882,255.717010 
	C194.169571,256.739319 193.952774,257.313202 193.735977,257.887085 
z"/>
<path fill="#8B514D" opacity="1.000000" stroke="none" 
	d="
M631.333069,446.923615 
	C631.698181,446.017914 632.365479,445.043091 633.346252,444.033417 
	C632.984924,444.950531 632.310059,445.902496 631.333069,446.923615 
z"/>
<path fill="#E3C5C4" opacity="1.000000" stroke="none" 
	d="
M748.954346,345.574280 
	C748.131653,345.805481 747.270691,345.721466 746.215881,345.366608 
	C746.986694,345.150177 747.951355,345.204590 748.954346,345.574280 
z"/>
<path fill="#E0C3C3" opacity="1.000000" stroke="none" 
	d="
M488.932678,70.283524 
	C488.463501,71.041588 487.627930,71.670265 486.466034,72.274971 
	C486.948578,71.552048 487.757416,70.853088 488.932678,70.283524 
z"/>
<path fill="#E0C3C3" opacity="1.000000" stroke="none" 
	d="
M181.956253,275.217743 
	C181.929550,276.166321 181.512543,277.116577 180.810669,278.210907 
	C180.872513,277.309784 181.219223,276.264618 181.956253,275.217743 
z"/>
<path fill="#E0C3C3" opacity="1.000000" stroke="none" 
	d="
M185.004059,272.116302 
	C185.004059,272.116302 184.582336,272.223450 184.364868,272.225281 
	C184.554092,271.192169 184.960800,270.157196 185.736115,269.084808 
	C186.006073,269.652039 185.907425,270.256683 185.516357,271.279297 
	C185.223938,271.697235 185.004059,272.116302 185.004059,272.116302 
z"/>
<path fill="#E0C3C3" opacity="1.000000" stroke="none" 
	d="
M225.023132,168.395477 
	C225.285706,168.965286 225.172440,169.581787 224.670532,170.675964 
	C224.122894,171.330704 223.963898,171.507782 223.691650,171.710114 
	C223.578415,171.735336 223.404251,171.582001 223.404251,171.582001 
	C223.818604,170.535385 224.232956,169.488754 225.023132,168.395477 
z"/>
<path fill="#8B514D" opacity="1.000000" stroke="none" 
	d="
M152.369232,326.184387 
	C152.988449,325.300262 153.504623,324.542938 154.309067,323.592651 
	C154.100433,324.477692 153.603531,325.555725 152.702423,326.635040 
	C152.298218,326.636353 152.266174,326.311157 152.369232,326.184387 
z"/>
<path fill="#E3C5C4" opacity="1.000000" stroke="none" 
	d="
M562.603333,95.213165 
	C561.846436,94.699142 561.227844,93.830437 560.625244,92.628883 
	C561.341431,93.150185 562.041565,94.004333 562.603333,95.213165 
z"/>
<path fill="#E3C5C4" opacity="1.000000" stroke="none" 
	d="
M633.657959,155.993622 
	C632.961121,155.876907 632.352295,155.405197 631.717163,154.629395 
	C632.375854,154.763092 633.060974,155.200867 633.657959,155.993622 
z"/>
<path fill="#E0C3C3" opacity="1.000000" stroke="none" 
	d="
M313.857727,83.181358 
	C313.771454,83.850700 313.329834,84.487946 312.599792,85.203125 
	C312.708374,84.570457 313.105347,83.859856 313.857727,83.181358 
z"/>
<path fill="#8B514D" opacity="1.000000" stroke="none" 
	d="
M246.981323,456.370056 
	C247.566681,456.432983 248.250000,456.772949 248.975082,457.423859 
	C248.370987,457.372253 247.725113,457.009644 246.981323,456.370056 
z"/>
<path fill="#E3C5C4" opacity="1.000000" stroke="none" 
	d="
M555.681519,84.987480 
	C555.001038,84.846123 554.411072,84.350174 553.781738,83.556229 
	C554.418945,83.716446 555.095520,84.174660 555.681519,84.987480 
z"/>
<path fill="#8B514D" opacity="1.000000" stroke="none" 
	d="
M231.761475,159.641998 
	C231.949158,159.466187 232.340027,159.615829 232.543854,159.658142 
	C232.358658,160.430893 231.969650,161.161331 231.230133,161.926270 
	C230.954727,161.544464 231.029846,161.128128 231.117004,160.394012 
	C231.277283,159.990067 231.425522,159.903946 231.761475,159.641998 
z"/>
<path fill="#E3C5C4" opacity="1.000000" stroke="none" 
	d="
M631.734497,153.938492 
	C631.050903,153.823059 630.434021,153.351318 629.772888,152.579224 
	C630.419434,152.713318 631.110352,153.147751 631.734497,153.938492 
z"/>
<path fill="#8B514D" opacity="1.000000" stroke="none" 
	d="
M150.991333,329.726624 
	C150.705795,329.443604 150.759705,328.998444 150.766571,328.220306 
	C150.869980,327.786163 151.020416,327.684967 151.434113,327.517578 
	C151.575195,328.155701 151.453003,328.860077 150.991333,329.726624 
z"/>
<path fill="#933229" opacity="1.000000" stroke="none" 
	d="
M223.399353,171.650848 
	C223.404251,171.582001 223.578415,171.735336 223.706665,171.687790 
	C223.834915,171.640244 223.906235,171.556229 223.906235,171.556229 
	C223.906235,171.556229 223.489014,171.422119 223.390625,171.617279 
	C223.292236,171.812424 223.394470,171.719681 223.399353,171.650848 
z"/>
<path fill="#DB4336" opacity="1.000000" stroke="none" 
	d="
M586.731018,140.994141 
	C612.094360,148.512421 629.490601,164.776291 639.869141,188.203476 
	C644.460815,198.568268 647.980713,209.614273 648.047607,221.317947 
	C648.346375,273.595764 649.153137,325.878021 648.646545,378.147736 
	C648.527161,390.471771 644.742493,402.800507 639.078735,414.409241 
	C633.362000,426.126404 625.981018,436.408875 616.412720,444.869171 
	C603.726318,456.086517 588.644470,462.067139 571.417419,462.059265 
	C479.446442,462.017303 387.474060,462.295074 295.505371,461.831635 
	C271.623169,461.711334 253.198807,450.050476 238.649399,430.957092 
	C228.847092,418.093384 224.468811,403.454834 220.405685,388.456818 
	C219.379028,384.667114 219.052475,380.585815 219.045197,376.637360 
	C218.954956,327.652954 218.770599,278.666962 219.092834,229.684540 
	C219.210770,211.758072 224.144714,195.054764 233.067200,179.165115 
	C240.770218,165.447144 251.227356,154.996994 264.542023,147.510284 
	C271.928223,143.357086 279.956635,139.624695 288.985565,139.939514 
	C290.292816,139.985092 291.670837,139.846451 292.916748,139.466934 
	C296.909546,138.250641 298.900085,140.046524 299.775574,143.733719 
	C302.580200,155.545898 308.366486,165.676865 317.377991,173.787827 
	C329.637604,184.822281 343.563141,190.172913 360.591736,188.371185 
	C372.035034,187.160416 381.993958,182.850998 390.392639,176.205185 
	C398.051208,170.145035 403.782074,161.569153 407.146301,151.930450 
	C411.658997,139.001358 411.675629,139.007431 425.631622,139.006897 
	C434.462158,139.006561 443.294952,139.118469 452.122101,138.945145 
	C455.366180,138.881439 457.173370,140.144470 457.869019,143.174683 
	C460.584320,155.001923 466.430756,165.207962 475.140106,173.437134 
	C483.839996,181.657394 494.056641,186.866379 506.452271,188.191284 
	C528.180542,190.513748 545.237305,182.783691 557.712158,165.440170 
	C562.247681,159.134506 564.910522,151.420441 567.997864,144.166000 
	C569.163879,141.426071 570.016418,139.493698 573.454956,139.909729 
	C577.720642,140.425842 582.024475,140.627075 586.731018,140.994141 
M501.776855,315.816589 
	C491.856110,310.556274 481.959595,305.249603 472.009064,300.046326 
	C456.332764,291.848877 440.617371,283.726166 424.923981,275.561340 
	C417.137604,271.510345 409.398499,267.366882 401.575134,263.388916 
	C390.654205,257.835968 379.491638,252.730316 368.770691,246.819794 
	C357.807068,240.775497 356.160675,244.401611 356.122650,254.229309 
	C355.938873,301.725250 356.033997,349.222321 356.030487,396.718994 
	C356.030457,397.218933 355.999695,397.721771 356.041077,398.218414 
	C356.444061,403.053040 360.189789,405.332001 364.503326,403.168396 
	C370.837860,399.991150 377.061829,396.594208 383.361450,393.346344 
	C399.254669,385.152252 415.147491,376.957031 431.076813,368.833527 
	C435.782288,366.433868 440.712585,364.464233 445.358612,361.961182 
	C455.416077,356.542816 465.272034,350.747650 475.368103,345.404572 
	C485.726013,339.922943 496.578522,335.310333 506.619049,329.319397 
	C512.520752,325.797943 514.967468,322.814911 506.382233,318.198364 
	C505.071564,317.493591 503.782104,316.749420 501.776855,315.816589 
z"/>
<path fill="#F9F3F1" opacity="1.000000" stroke="none" 
	d="
M336.560516,150.933792 
	C329.173615,151.262909 321.787781,151.713608 314.398621,151.775909 
	C313.412750,151.784241 311.999329,149.997742 311.475891,148.751740 
	C299.617462,120.522041 312.576447,86.465065 341.913940,77.213013 
	C362.700500,70.657639 386.477631,81.026665 396.457611,101.548225 
	C404.595764,118.282433 405.260345,135.147705 395.700775,152.120453 
	C388.121704,152.390823 381.139343,152.444946 374.156952,152.499069 
	C373.911591,152.117844 373.666229,151.736618 373.579590,151.058014 
	C374.796173,149.493927 375.898956,148.261765 376.904938,146.955078 
	C386.089264,135.025681 385.972351,117.430260 376.666290,107.110916 
	C376.674591,107.150909 376.574463,107.023506 376.403137,106.691696 
	C375.802063,106.221199 375.372375,106.082504 374.933838,105.982285 
	C374.925049,106.020760 374.990906,106.064285 375.135803,105.721466 
	C367.853455,96.383209 355.373962,93.365875 344.574707,97.858078 
	C323.428864,106.654205 319.789673,136.419144 336.560516,150.933792 
z"/>
<path fill="#FEFDFC" opacity="1.000000" stroke="none" 
	d="
M505.104858,76.327126 
	C505.833069,76.234306 506.561279,76.141487 507.955872,76.367760 
	C509.443695,76.783096 510.275757,77.017830 511.084930,76.955429 
	C534.685730,75.135452 555.911682,95.236092 558.217407,118.930565 
	C558.391663,120.721504 559.740112,122.398186 560.542725,124.127975 
	C560.601929,126.099327 560.661194,128.070663 560.303345,130.598740 
	C558.611755,135.696533 557.553772,140.315369 555.963440,144.742950 
	C555.262024,146.695724 553.627930,149.598846 552.161072,149.761642 
	C546.741333,150.363174 541.214661,150.000854 535.672974,150.000854 
	C537.136230,146.638382 538.302917,143.957321 539.814575,141.199646 
	C541.250977,140.952408 542.342346,140.781799 543.879700,140.541458 
	C543.161255,138.128403 542.540405,136.043121 541.901855,133.495178 
	C541.940918,128.685333 541.997742,124.338158 542.322388,119.747467 
	C543.647949,115.957481 542.197998,113.581429 538.939087,111.774567 
	C538.732239,111.238792 538.666687,110.912102 538.691101,110.207962 
	C538.108643,109.263779 537.436279,108.697037 536.525452,107.938263 
	C535.416382,106.620705 534.545715,105.495193 533.651245,104.079231 
	C533.300415,103.623695 532.973572,103.458611 532.394348,103.122467 
	C531.053284,102.039719 529.964539,101.128029 528.762451,99.928543 
	C528.100159,99.422165 527.551392,99.203590 526.697998,98.893906 
	C525.980408,98.806412 525.567444,98.810036 525.157227,98.707581 
	C525.160034,98.601501 525.214355,98.396347 525.180908,98.115662 
	C524.431152,97.561203 523.714783,97.287422 522.606812,96.945274 
	C520.909058,96.788979 519.602966,96.701050 518.367554,96.510132 
	C518.438171,96.407150 518.598206,96.215385 518.837952,96.168373 
	C519.175720,95.990440 519.327209,95.870392 519.356689,95.725525 
	C519.386108,95.580963 519.344238,95.320595 519.246826,95.265999 
	C514.299683,92.494797 503.868530,94.110657 500.760986,98.206581 
	C500.224670,98.455811 499.909271,98.579041 499.244568,98.550095 
	C493.543335,100.599823 489.339447,103.913834 487.533020,109.939453 
	C486.786102,111.331429 486.327454,112.613571 485.708496,114.066643 
	C485.333252,114.467369 485.152893,114.721649 484.619812,115.000572 
	C482.598663,116.273956 480.964783,117.547188 479.330933,118.820419 
	C480.601654,119.561745 481.872406,120.303078 483.229034,121.253586 
	C483.475830,121.741600 483.712982,121.918091 484.051331,122.364746 
	C484.027893,123.481110 483.979462,124.224968 483.695557,125.163330 
	C483.607910,126.251198 483.755737,127.144554 483.962952,128.448853 
	C484.024689,130.239929 484.027008,131.620056 483.642761,133.004852 
	C478.820007,133.553360 480.149200,137.007553 479.367096,140.032089 
	C481.360840,139.560867 482.770538,139.227676 484.467194,138.927078 
	C485.141541,138.987350 485.528961,139.015015 486.021057,139.289917 
	C486.223846,139.880615 486.321930,140.224075 486.303589,140.956146 
	C487.084381,144.018188 487.981659,146.691620 489.119202,150.081024 
	C486.753204,150.081024 484.979187,150.015213 483.211517,150.092896 
	C476.973022,150.367065 470.434998,151.292984 468.788147,142.639999 
	C468.725555,142.311157 468.004791,142.107574 467.590698,141.845612 
	C467.451874,141.435791 467.313049,141.025970 467.436279,140.014984 
	C467.665375,138.103210 467.749603,136.777374 467.581573,135.484329 
	C465.555634,119.893951 468.325500,105.631737 478.915680,93.421310 
	C481.013031,91.003075 482.759369,88.280418 484.667572,85.698135 
	C484.667572,85.698143 484.801056,85.837395 485.128906,85.831276 
	C487.097687,85.099319 488.764801,84.426849 490.374695,83.637672 
	C495.296539,81.224915 500.196442,78.767296 505.104858,76.327126 
z"/>
<path fill="#702721" opacity="1.000000" stroke="none" 
	d="
M376.657990,107.070923 
	C385.972351,117.430260 386.089264,135.025681 376.904938,146.955078 
	C375.898956,148.261765 374.796173,149.493927 373.429596,150.881714 
	C362.113708,151.337173 351.107086,151.694748 340.098267,151.963928 
	C339.172852,151.986542 338.232910,151.415634 336.930115,151.027130 
	C319.789673,136.419144 323.428864,106.654205 344.574707,97.858078 
	C355.373962,93.365875 367.853455,96.383209 374.757507,105.765076 
	C371.238098,105.713837 367.974915,104.305321 365.301239,105.040558 
	C359.730438,106.572479 357.215546,113.298851 359.105530,119.382347 
	C360.803467,124.847626 365.349884,127.778419 370.403473,126.665413 
	C375.394501,125.566185 378.726105,119.902931 377.911469,113.734810 
	C377.741089,112.444756 377.137451,111.217415 376.872986,109.932449 
	C376.681732,109.003227 376.721344,108.026474 376.657990,107.070923 
z"/>
<path fill="#6C211A" opacity="1.000000" stroke="none" 
	d="
M530.983948,151.967514 
	C521.068176,151.982742 511.152008,152.043533 501.236847,151.970840 
	C499.467865,151.957870 497.702942,151.391617 495.241516,150.884293 
	C493.627228,149.556656 492.707611,148.425583 491.817261,146.954407 
	C491.238556,146.068741 490.630554,145.523163 489.796204,144.743393 
	C489.005951,143.347534 488.442108,142.185852 488.116058,140.874588 
	C487.709869,139.786194 487.065857,138.847397 486.315125,137.602951 
	C486.150452,136.870789 486.092468,136.444260 486.293030,135.742645 
	C486.367706,131.133179 486.170929,126.799316 486.006958,122.464211 
	C485.950409,120.968697 485.975616,119.470093 485.995483,117.659210 
	C486.153229,116.944710 486.278931,116.543900 486.712463,116.017433 
	C487.305389,114.874229 487.590485,113.856667 487.915344,112.638245 
	C487.955109,112.437386 488.161926,112.083916 488.494568,112.013428 
	C489.920715,110.016121 491.014221,108.089294 492.272797,105.875824 
	C494.466339,103.883842 496.494781,102.178520 498.859314,100.592247 
	C499.798706,100.145493 500.402069,99.579681 501.243408,98.884216 
	C501.828094,98.655380 502.174805,98.556198 502.879456,98.598450 
	C504.170380,98.173569 505.103363,97.607262 506.493835,96.939240 
	C510.833618,96.630142 514.715942,96.422768 518.598206,96.215393 
	C518.598206,96.215385 518.438171,96.407150 518.502319,96.858070 
	C520.205627,97.679199 521.844788,98.049408 523.776001,98.485947 
	C524.450256,98.500290 524.832275,98.448311 525.214355,98.396339 
	C525.214355,98.396347 525.160034,98.601501 525.158325,99.078346 
	C526.069336,101.407265 526.273804,102.886368 523.760376,103.749275 
	C522.706299,104.111153 521.915894,105.241058 520.830688,106.192352 
	C520.410156,106.578804 520.146240,106.769234 519.499695,106.938332 
	C514.379150,111.099915 513.770569,117.072617 517.872803,121.391342 
	C519.656372,123.287048 521.259583,124.897636 522.980713,126.795776 
	C525.233154,128.736465 527.345764,130.034790 529.464111,126.555214 
	C530.169983,126.268013 530.586792,126.136459 531.169067,126.243469 
	C531.771423,125.883476 532.208252,125.284920 532.716431,124.738815 
	C532.787781,124.791252 532.695557,124.640121 533.040649,124.701561 
	C534.310974,122.854774 535.236145,120.946556 536.157837,118.701416 
	C536.257385,117.928352 536.360291,117.492210 536.840271,117.030014 
	C538.174255,118.798607 539.701416,120.512329 539.969849,122.404633 
	C540.536072,126.395638 540.443298,130.480133 540.601868,134.817108 
	C540.601379,135.491837 540.619873,135.875732 540.262085,136.279236 
	C539.695129,137.208069 539.504395,138.117279 539.240601,139.310272 
	C539.127441,139.785263 539.087402,139.976486 538.717163,140.263855 
	C535.919312,144.229172 533.451660,148.098343 530.983948,151.967514 
z"/>
<path fill="#C73D30" opacity="1.000000" stroke="none" 
	d="
M706.118286,356.660187 
	C703.925842,358.272217 701.808472,359.553802 699.358093,360.875305 
	C692.987488,350.894684 686.872070,340.920013 680.934875,330.840363 
	C675.356506,321.369629 670.563477,311.368958 664.274963,302.408539 
	C660.343994,296.807465 660.356140,291.066833 660.078064,285.092377 
	C659.791870,278.944580 659.964783,272.772552 660.043274,266.612457 
	C660.065125,264.891937 660.463318,263.176178 660.878296,260.016449 
	C662.912598,261.986786 664.251587,262.854095 665.004456,264.081024 
	C670.937683,273.750610 676.717468,283.514252 682.630798,293.196228 
	C685.966858,298.658203 689.630554,303.924683 692.852783,309.450562 
	C697.484436,317.393341 701.812378,325.512573 706.343628,333.514862 
	C708.203369,336.799377 710.042419,340.131531 712.270874,343.162598 
	C715.268982,347.240570 714.124023,350.015442 710.081665,352.647308 
	C708.748596,354.111816 707.471008,355.220795 706.118286,356.660187 
z"/>
<path fill="#C83D30" opacity="1.000000" stroke="none" 
	d="
M154.354660,351.957397 
	C154.028397,351.496490 154.018539,351.082184 153.982834,350.358215 
	C154.808731,347.404816 155.250046,344.530182 156.584778,342.158325 
	C161.763153,332.956085 167.182663,323.888092 172.591721,314.817444 
	C182.657455,297.937897 192.770386,281.086487 202.892349,264.240570 
	C203.719177,262.864502 204.765381,261.620270 206.364075,259.410004 
	C206.679993,261.687988 206.987640,262.900879 206.994202,264.115387 
	C207.040161,272.613464 206.546387,281.147461 207.176132,289.599121 
	C207.695190,296.565186 205.148285,301.920837 201.354980,307.307434 
	C198.438217,311.449341 196.292557,316.125885 193.643921,320.467010 
	C190.117676,326.246490 186.333755,331.869812 182.849976,337.673920 
	C179.382401,343.450989 176.305786,349.467438 172.716217,355.163696 
	C171.661148,356.837952 169.443466,357.779602 167.366684,359.083801 
	C165.252640,358.403839 163.530518,357.697083 161.462982,356.935852 
	C161.117554,356.881348 160.700470,356.778778 160.419952,356.410553 
	C159.172119,355.283447 158.204773,354.524597 157.237427,353.765686 
	C156.381973,353.178497 155.526520,352.591278 154.354660,351.957397 
z"/>
<path fill="#D54234" opacity="1.000000" stroke="none" 
	d="
M497.424988,175.675201 
	C487.954590,172.071075 482.032654,167.654083 480.321655,163.042969 
	C485.545471,161.086227 542.598816,161.628830 545.601624,163.663818 
	C538.446716,174.226883 516.490784,183.687683 497.424988,175.675201 
z"/>
<path fill="#D44234" opacity="1.000000" stroke="none" 
	d="
M373.990326,161.992889 
	C378.788757,161.993484 383.089569,161.993484 389.041382,161.993484 
	C383.205505,170.244644 375.867126,174.268875 368.138733,176.586960 
	C350.506866,181.875534 335.093048,177.290939 321.400482,163.292664 
	C322.320099,162.893143 322.937805,162.394073 323.560394,162.387985 
	C340.204163,162.225128 356.848511,162.113007 373.990326,161.992889 
z"/>
<path fill="#E6C3C1" opacity="1.000000" stroke="none" 
	d="
M560.708008,123.712036 
	C559.740112,122.398186 558.391663,120.721504 558.217407,118.930565 
	C555.911682,95.236092 534.685730,75.135452 511.084930,76.955429 
	C510.275757,77.017830 509.443695,76.783096 508.322998,76.408737 
	C516.286865,73.762093 524.248474,75.493179 531.615479,78.987030 
	C550.170105,87.786659 559.105347,103.251579 560.708008,123.712036 
z"/>
<path fill="#E6C3C1" opacity="1.000000" stroke="none" 
	d="
M531.384033,152.068619 
	C533.451660,148.098343 535.919312,144.229172 538.807617,140.546722 
	C539.308716,140.914383 539.389160,141.095322 539.469604,141.276276 
	C538.302917,143.957321 537.136230,146.638382 535.672974,150.000854 
	C541.214661,150.000854 546.741333,150.363174 552.161072,149.761642 
	C553.627930,149.598846 555.262024,146.695724 555.963440,144.742950 
	C557.553772,140.315369 558.611755,135.696533 560.205933,131.010986 
	C559.016602,137.214279 557.656677,143.604782 555.861877,149.870743 
	C555.536438,151.007202 553.445312,152.347153 552.142700,152.375626 
	C545.361267,152.523834 538.571228,152.278244 531.384033,152.068619 
z"/>
<path fill="#7D261E" opacity="1.000000" stroke="none" 
	d="
M658.567139,322.130920 
	C658.954590,340.324646 659.090454,358.595917 658.851379,376.862305 
	C658.785278,381.912231 657.603271,386.947571 656.890686,392.420105 
	C656.565125,390.102417 656.007263,387.350647 656.043213,384.606659 
	C656.294128,365.482849 656.640808,346.360077 657.049438,327.238953 
	C657.085449,325.554260 657.783447,323.883728 658.567139,322.130920 
z"/>
<path fill="#E6C3C1" opacity="1.000000" stroke="none" 
	d="
M484.326324,85.728439 
	C482.759369,88.280418 481.013031,91.003075 478.915680,93.421310 
	C468.325500,105.631737 465.555634,119.893951 467.581573,135.484329 
	C467.749603,136.777374 467.665375,138.103210 467.433899,139.688675 
	C466.550323,133.353439 464.889038,126.640747 465.527496,120.154419 
	C466.884705,106.366219 472.822449,94.534302 484.326324,85.728439 
z"/>
<path fill="#E6C3C1" opacity="1.000000" stroke="none" 
	d="
M491.787964,147.294510 
	C492.707611,148.425583 493.627228,149.556656 494.833496,150.821930 
	C494.816101,151.392166 494.512115,151.828232 493.602539,152.421448 
	C485.976562,152.610367 478.956177,152.642151 471.935791,152.673935 
	C470.400940,149.304382 468.866058,145.934830 467.460938,142.205460 
	C468.004791,142.107574 468.725555,142.311157 468.788147,142.639999 
	C470.434998,151.292984 476.973022,150.367065 483.211517,150.092896 
	C484.979187,150.015213 486.753204,150.081024 489.119202,150.081024 
	C487.981659,146.691620 487.084381,144.018188 486.550201,141.027969 
	C487.234924,140.815536 487.556580,140.919861 487.878235,141.024185 
	C488.442108,142.185852 489.005951,143.347534 489.810242,145.059937 
	C490.629791,146.171951 491.208862,146.733231 491.787964,147.294510 
z"/>
<path fill="#7A241C" opacity="1.000000" stroke="none" 
	d="
M211.464844,393.567474 
	C207.308914,369.668762 209.628784,345.266968 208.958496,320.491150 
	C209.622528,320.794647 210.888489,321.564178 210.888062,322.332977 
	C210.885117,327.629486 210.520004,332.924622 210.457367,338.222443 
	C210.353531,347.004822 210.205978,355.793304 210.416229,364.571075 
	C210.645340,374.137695 211.260880,383.695068 211.464844,393.567474 
z"/>
<path fill="#E6C3C1" opacity="1.000000" stroke="none" 
	d="
M504.714386,76.207085 
	C500.196442,78.767296 495.296539,81.224915 490.374695,83.637672 
	C488.764801,84.426849 487.097687,85.099319 485.087952,85.743942 
	C490.081848,80.070831 496.847687,77.351730 504.714386,76.207085 
z"/>
<path fill="#79261E" opacity="1.000000" stroke="none" 
	d="
M472.018250,153.099365 
	C478.956177,152.642151 485.976562,152.610367 493.455383,152.645569 
	C493.225647,153.464676 492.551178,154.853928 491.847168,154.869095 
	C485.716064,155.001068 479.579071,154.914810 473.445984,154.789307 
	C472.989136,154.779953 472.548737,153.965149 472.018250,153.099365 
z"/>
<path fill="#79281E" opacity="1.000000" stroke="none" 
	d="
M374.171356,152.931915 
	C381.139343,152.444946 388.121704,152.390823 395.569916,152.406235 
	C395.235291,153.306198 394.457001,154.829544 393.630768,154.856003 
	C387.707031,155.045685 381.772614,154.972519 375.844513,154.845749 
	C375.281281,154.833694 374.738190,153.880859 374.171356,152.931915 
z"/>
<path fill="#8B514D" opacity="1.000000" stroke="none" 
	d="
M217.141693,186.869904 
	C217.284149,185.353943 217.817703,183.807404 218.633759,182.051361 
	C218.455093,183.507675 217.993958,185.173492 217.141693,186.869904 
z"/>
<path fill="#8B514D" opacity="1.000000" stroke="none" 
	d="
M175.346039,288.953552 
	C175.043335,288.610046 175.086655,288.204254 175.179871,287.494934 
	C175.641739,286.852783 176.053726,286.514099 176.702576,286.051819 
	C176.523651,286.915924 176.107864,287.903595 175.346039,288.953552 
z"/>
<path fill="#8B514D" opacity="1.000000" stroke="none" 
	d="
M205.284500,238.914978 
	C205.324097,238.245728 205.723907,237.521530 206.404388,236.637939 
	C206.338272,237.272369 205.991486,238.066193 205.284500,238.914978 
z"/>
<path fill="#8B514D" opacity="1.000000" stroke="none" 
	d="
M223.728073,171.912170 
	C223.906235,171.556229 223.834915,171.640244 223.819916,171.662567 
	C223.963898,171.507782 224.122894,171.330704 224.597198,170.985962 
	C224.614914,171.502090 224.317352,172.185913 223.739777,172.964417 
	C223.489838,172.795425 223.519867,172.531769 223.728073,171.912170 
z"/>
<path fill="#8B514D" opacity="1.000000" stroke="none" 
	d="
M236.258301,155.917511 
	C236.399719,155.315720 236.877213,154.690384 237.636383,153.955139 
	C237.476822,154.528152 237.035614,155.211075 236.258301,155.917511 
z"/>
<path fill="#8B514D" opacity="1.000000" stroke="none" 
	d="
M156.893707,319.742523 
	C156.830627,319.276245 157.096298,318.710968 157.635986,317.983154 
	C157.680832,318.428223 157.451645,319.035858 156.893707,319.742523 
z"/>
<path fill="#8B514D" opacity="1.000000" stroke="none" 
	d="
M178.982300,282.754578 
	C178.905502,282.294281 179.140182,281.718719 179.656113,280.994354 
	C179.722824,281.443481 179.508286,282.041412 178.982300,282.754578 
z"/>
<path fill="#8B514D" opacity="1.000000" stroke="none" 
	d="
M234.710968,157.642517 
	C234.700302,157.161072 235.029846,156.650330 235.650024,156.031937 
	C235.644150,156.487259 235.347656,157.050247 234.710968,157.642517 
z"/>
<path fill="#8B514D" opacity="1.000000" stroke="none" 
	d="
M233.022079,159.727570 
	C232.960281,159.281204 233.197235,158.743286 233.716583,158.091003 
	C233.772919,158.529770 233.546875,159.082901 233.022079,159.727570 
z"/>
<path fill="#8B514D" opacity="1.000000" stroke="none" 
	d="
M194.035217,257.762878 
	C193.952774,257.313202 194.169571,256.739319 194.667175,256.021484 
	C194.743500,256.464539 194.538971,257.051605 194.035217,257.762878 
z"/>
<path fill="#8B514D" opacity="1.000000" stroke="none" 
	d="
M227.795013,166.701630 
	C227.735870,166.212952 228.030609,165.646072 228.595200,164.897095 
	C228.626343,165.351151 228.387619,165.987289 227.795013,166.701630 
z"/>
<path fill="#8B514D" opacity="1.000000" stroke="none" 
	d="
M161.720367,311.775757 
	C161.509613,311.753204 161.589172,311.323792 161.733002,311.159393 
	C162.017349,311.200623 162.157867,311.406281 162.298386,311.611908 
	C162.175964,311.674072 162.053543,311.736206 161.720367,311.775757 
z"/>
<path fill="#8B514D" opacity="1.000000" stroke="none" 
	d="
M165.924652,303.909424 
	C165.978790,303.925140 166.105408,303.986389 166.232025,304.047607 
	C166.140747,304.083160 166.049438,304.118713 165.920517,303.990356 
	C165.882904,303.826447 165.997131,303.954895 165.924652,303.909424 
z"/>
<path fill="#8B514D" opacity="1.000000" stroke="none" 
	d="
M168.092148,300.837830 
	C167.962250,300.612579 168.110916,300.233368 168.526047,299.687683 
	C168.651901,299.908752 168.511307,300.296295 168.092148,300.837830 
z"/>
<path fill="#8B514D" opacity="1.000000" stroke="none" 
	d="
M177.182648,285.807678 
	C177.040054,285.598541 177.156769,285.231873 177.510605,284.687439 
	C177.645813,284.889801 177.543900,285.269958 177.182648,285.807678 
z"/>
<path fill="#8B514D" opacity="1.000000" stroke="none" 
	d="
M185.154114,272.247314 
	C185.004059,272.116302 185.223938,271.697235 185.429153,271.580688 
	C185.524307,271.768860 185.414246,272.073578 185.154114,272.247314 
z"/>
<path fill="#F7F3EE" opacity="1.000000" stroke="none" 
	d="
M695.779297,412.908936 
	C692.917847,392.848724 698.988342,376.611725 714.945801,364.659576 
	C732.803650,351.284088 756.903198,355.425110 771.630066,373.986298 
	C792.522034,400.317841 780.397644,440.142303 748.667480,449.410553 
	C728.920837,455.178497 706.833191,443.422668 698.874207,422.827667 
	C697.679321,419.735687 696.866516,416.496124 695.779297,412.908936 
z"/>
<path fill="#F8F3EE" opacity="1.000000" stroke="none" 
	d="
M86.467621,396.774414 
	C88.794937,383.703888 94.643257,373.184662 104.984901,365.398193 
	C124.640274,350.599396 150.876175,355.712250 164.954086,377.020935 
	C181.452911,401.993988 171.888672,435.347565 144.668274,447.764221 
	C127.837540,455.441559 106.238655,448.704407 95.058563,432.200562 
	C87.889183,421.617249 84.788269,409.972504 86.467621,396.774414 
z"/>
<path fill="#8B514D" opacity="1.000000" stroke="none" 
	d="
M157.192627,354.135590 
	C158.204773,354.524597 159.172119,355.283447 160.208282,356.374359 
	C159.234024,355.972748 158.190933,355.239105 157.192627,354.135590 
z"/>
<path fill="#943429" opacity="1.000000" stroke="none" 
	d="
M502.129852,315.920013 
	C503.782104,316.749420 505.071564,317.493591 506.382233,318.198364 
	C514.967468,322.814911 512.520752,325.797943 506.619049,329.319397 
	C496.578522,335.310333 485.726013,339.922943 475.368103,345.404572 
	C465.272034,350.747650 455.416077,356.542816 445.358612,361.961182 
	C440.712585,364.464233 435.782288,366.433868 431.076813,368.833527 
	C415.147491,376.957031 399.254669,385.152252 383.361450,393.346344 
	C377.061829,396.594208 370.837860,399.991150 364.503326,403.168396 
	C360.189789,405.332001 356.444061,403.053040 356.041077,398.218414 
	C355.999695,397.721771 356.030457,397.218933 356.030487,396.718994 
	C356.033997,349.222321 355.938873,301.725250 356.122650,254.229309 
	C356.160675,244.401611 357.807068,240.775497 368.770691,246.819794 
	C379.491638,252.730316 390.654205,257.835968 401.575134,263.388916 
	C409.398499,267.366882 417.137604,271.510345 424.923981,275.561340 
	C440.617371,283.726166 456.332764,291.848877 472.009064,300.046326 
	C481.959595,305.249603 491.856110,310.556274 502.129852,315.920013 
M365.082855,339.500000 
	C365.082855,356.677673 365.082855,373.855316 365.082855,392.312469 
	C409.642578,369.196136 452.777069,346.819183 495.911560,324.442230 
	C495.762909,323.899628 495.614288,323.357056 495.465668,322.814453 
	C452.353821,300.479034 409.241943,278.143585 365.084534,255.266479 
	C365.084534,283.965088 365.084534,311.232544 365.082855,339.500000 
z"/>
<path fill="#F4EBE9" opacity="1.000000" stroke="none" 
	d="
M376.666290,107.110916 
	C376.721344,108.026474 376.681732,109.003227 376.872986,109.932449 
	C377.137451,111.217415 377.741089,112.444756 377.911469,113.734810 
	C378.726105,119.902931 375.394501,125.566185 370.403473,126.665413 
	C365.349884,127.778419 360.803467,124.847626 359.105530,119.382347 
	C357.215546,113.298851 359.730438,106.572479 365.301239,105.040558 
	C367.974915,104.305321 371.238098,105.713837 374.612610,106.107895 
	C374.990906,106.064285 374.925049,106.020760 374.992310,106.408783 
	C375.564514,106.872375 376.069489,106.947937 376.574463,107.023506 
	C376.574463,107.023506 376.674591,107.150909 376.666290,107.110916 
z"/>
<path fill="#702721" opacity="1.000000" stroke="none" 
	d="
M376.403137,106.691696 
	C376.069489,106.947937 375.564514,106.872375 375.001099,106.370308 
	C375.372375,106.082504 375.802063,106.221199 376.403137,106.691696 
z"/>
<path fill="#8C5A59" opacity="1.000000" stroke="none" 
	d="
M521.005615,106.021812 
	C521.915894,105.241058 522.706299,104.111153 523.760376,103.749275 
	C526.273804,102.886368 526.069336,101.407265 525.155518,99.184425 
	C525.567444,98.810036 525.980408,98.806412 526.803589,99.182343 
	C527.767761,99.780029 528.321838,99.998177 528.875854,100.216339 
	C529.964539,101.128029 531.053284,102.039719 532.478149,103.373573 
	C533.101257,103.987045 533.388184,104.178360 533.675110,104.369675 
	C534.545715,105.495193 535.416382,106.620705 536.552612,108.262283 
	C537.412537,109.380684 538.006836,109.983040 538.601196,110.585403 
	C538.666687,110.912102 538.732239,111.238792 538.934082,112.143570 
	C540.065186,115.144775 541.059875,117.567879 542.054565,119.990982 
	C541.997742,124.338158 541.940918,128.685333 541.667114,133.545502 
	C541.217529,134.291962 540.941101,134.447876 540.620911,134.526260 
	C540.443298,130.480133 540.536072,126.395638 539.969849,122.404633 
	C539.701416,120.512329 538.174255,118.798607 536.685181,116.647873 
	C535.064758,106.459229 530.265564,103.205383 521.005615,106.021812 
z"/>
<path fill="#E6C3C1" opacity="1.000000" stroke="none" 
	d="
M518.837952,96.168381 
	C514.715942,96.422768 510.833618,96.630142 506.158691,96.878662 
	C504.417908,97.432205 503.469727,97.944603 502.521545,98.457016 
	C502.174805,98.556198 501.828094,98.655380 501.228210,98.651146 
	C500.975037,98.547737 500.981873,98.080582 500.981873,98.080582 
	C503.868530,94.110657 514.299683,92.494797 519.246826,95.265999 
	C519.344238,95.320595 519.386108,95.580963 519.356689,95.725525 
	C519.327209,95.870392 519.175720,95.990440 518.837952,96.168381 
z"/>
<path fill="#875454" opacity="1.000000" stroke="none" 
	d="
M485.963440,117.972900 
	C485.975616,119.470093 485.950409,120.968697 486.006958,122.464211 
	C486.170929,126.799316 486.367706,131.133179 486.046997,135.669037 
	C485.239044,135.717239 484.935730,135.563950 484.602264,135.098419 
	C484.391205,134.190857 484.210297,133.595520 484.029358,133.000198 
	C484.027008,131.620056 484.024689,130.239929 484.076416,128.073547 
	C484.063995,126.514481 483.997528,125.741653 483.931030,124.968819 
	C483.979462,124.224968 484.027893,123.481110 484.156921,122.148270 
	C484.237518,121.559280 484.142029,121.087151 484.249084,120.782043 
	C484.518158,119.634087 484.680176,118.791237 485.122192,117.967010 
	C485.589325,117.981384 485.776398,117.977142 485.963440,117.972900 
z"/>
<path fill="#E6C3C1" opacity="1.000000" stroke="none" 
	d="
M498.523254,100.473198 
	C496.494781,102.178520 494.466339,103.883842 491.978271,105.986000 
	C490.456573,107.679176 489.394501,108.975525 488.203827,110.162277 
	C488.075226,110.052681 487.821350,109.829620 487.821350,109.829620 
	C489.339447,103.913834 493.543335,100.599823 499.143677,98.789436 
	C499.102448,99.611710 498.812836,100.042450 498.523254,100.473198 
z"/>
<path fill="#FCF6F3" opacity="1.000000" stroke="none" 
	d="
M484.842163,117.948395 
	C484.680176,118.791237 484.518158,119.634087 483.999695,120.762329 
	C483.476501,121.046616 483.309814,121.045517 483.143127,121.044403 
	C481.872406,120.303078 480.601654,119.561745 479.330933,118.820419 
	C480.964783,117.547188 482.598663,116.273956 484.521454,115.268234 
	C484.820984,116.339973 484.831573,117.144180 484.842163,117.948395 
z"/>
<path fill="#FCF6F3" opacity="1.000000" stroke="none" 
	d="
M483.642761,133.004852 
	C484.210297,133.595520 484.391205,134.190857 484.421417,135.512360 
	C484.240570,137.123825 484.210419,138.009155 484.180237,138.894470 
	C482.770538,139.227676 481.360840,139.560867 479.367096,140.032089 
	C480.149200,137.007553 478.820007,133.553360 483.642761,133.004852 
z"/>
<path fill="#EDDEDA" opacity="1.000000" stroke="none" 
	d="
M540.601868,134.817108 
	C540.941101,134.447876 541.217529,134.291962 541.684875,134.008179 
	C542.540405,136.043121 543.161255,138.128403 543.879700,140.541458 
	C542.342346,140.781799 541.250977,140.952408 539.814575,141.199646 
	C539.389160,141.095322 539.308716,140.914383 539.137817,140.450562 
	C539.087402,139.976486 539.127441,139.785263 539.516113,139.271698 
	C540.122559,138.052765 540.380493,137.156204 540.638428,136.259628 
	C540.619873,135.875732 540.601379,135.491837 540.601868,134.817108 
z"/>
<path fill="#EDDEDA" opacity="1.000000" stroke="none" 
	d="
M542.322327,119.747467 
	C541.059875,117.567879 540.065186,115.144775 539.075439,112.352654 
	C542.197998,113.581429 543.647949,115.957481 542.322327,119.747467 
z"/>
<path fill="#E6C3C1" opacity="1.000000" stroke="none" 
	d="
M488.161926,112.083916 
	C488.161926,112.083916 487.955109,112.437386 487.679504,112.760757 
	C487.050568,113.480202 486.697205,113.876266 486.225189,114.178062 
	C486.106537,114.083786 485.868835,113.895706 485.868835,113.895706 
	C486.327454,112.613571 486.786102,111.331429 487.533020,109.939453 
	C487.821350,109.829620 488.075226,110.052681 488.146454,110.462982 
	C488.199097,111.276825 488.180511,111.680367 488.161926,112.083916 
z"/>
<path fill="#8B5758" opacity="1.000000" stroke="none" 
	d="
M523.483887,98.419624 
	C521.844788,98.049408 520.205627,97.679199 518.431763,96.961060 
	C519.602966,96.701050 520.909058,96.788979 522.630615,97.195801 
	C523.192078,97.816345 523.337952,98.117989 523.483887,98.419624 
z"/>
<path fill="#875454" opacity="1.000000" stroke="none" 
	d="
M488.116058,140.874588 
	C487.556580,140.919861 487.234924,140.815536 486.666656,140.639374 
	C486.321930,140.224075 486.223846,139.880615 486.142761,139.004257 
	C486.247131,138.283768 486.334473,138.096176 486.421814,137.908600 
	C487.065857,138.847397 487.709869,139.786194 488.116058,140.874588 
z"/>
<path fill="#E6C3C1" opacity="1.000000" stroke="none" 
	d="
M523.776001,98.485947 
	C523.337952,98.117989 523.192078,97.816345 523.022339,97.264175 
	C523.714783,97.287422 524.431152,97.561203 525.180908,98.115662 
	C524.832275,98.448311 524.450256,98.500290 523.776001,98.485947 
z"/>
<path fill="#E6C3C1" opacity="1.000000" stroke="none" 
	d="
M486.315125,137.602936 
	C486.334473,138.096176 486.247131,138.283768 486.038055,138.757034 
	C485.528961,139.015015 485.141541,138.987350 484.467194,138.927063 
	C484.210419,138.009155 484.240570,137.123825 484.451569,135.824585 
	C484.935730,135.563950 485.239044,135.717239 485.788391,135.944153 
	C486.092468,136.444260 486.150452,136.870789 486.315125,137.602936 
z"/>
<path fill="#E6C3C1" opacity="1.000000" stroke="none" 
	d="
M485.122192,117.967010 
	C484.831573,117.144180 484.820984,116.339973 484.908752,115.268097 
	C485.152893,114.721649 485.333252,114.467369 485.708496,114.066643 
	C485.868835,113.895706 486.106537,114.083786 486.204651,114.492561 
	C486.336700,115.315254 486.370636,115.729164 486.404602,116.143082 
	C486.278931,116.543900 486.153229,116.944710 485.995483,117.659210 
	C485.776398,117.977142 485.589325,117.981384 485.122192,117.967010 
z"/>
<path fill="#8B5758" opacity="1.000000" stroke="none" 
	d="
M498.859314,100.592247 
	C498.812836,100.042450 499.102448,99.611710 499.492920,98.941620 
	C499.909271,98.579041 500.224670,98.455811 500.760986,98.206581 
	C500.981873,98.080582 500.975037,98.547737 500.990234,98.780807 
	C500.402069,99.579681 499.798706,100.145493 498.859314,100.592247 
z"/>
<path fill="#EDDEDA" opacity="1.000000" stroke="none" 
	d="
M538.691101,110.207954 
	C538.006836,109.983040 537.412537,109.380684 536.791016,108.454315 
	C537.436279,108.697037 538.108643,109.263779 538.691101,110.207954 
z"/>
<path fill="#E6C3C1" opacity="1.000000" stroke="none" 
	d="
M483.695557,125.163330 
	C483.997528,125.741653 484.063995,126.514481 484.017029,127.662613 
	C483.755737,127.144554 483.607910,126.251198 483.695557,125.163330 
z"/>
<path fill="#E6C3C1" opacity="1.000000" stroke="none" 
	d="
M528.762451,99.928543 
	C528.321838,99.998177 527.767761,99.780029 527.108154,99.273445 
	C527.551392,99.203590 528.100159,99.422165 528.762451,99.928543 
z"/>
<path fill="#E6C3C1" opacity="1.000000" stroke="none" 
	d="
M483.229034,121.253593 
	C483.309814,121.045517 483.476501,121.046616 483.892609,121.067436 
	C484.142029,121.087151 484.237518,121.559280 484.131958,121.775757 
	C483.712982,121.918091 483.475830,121.741600 483.229034,121.253593 
z"/>
<path fill="#E6C3C1" opacity="1.000000" stroke="none" 
	d="
M533.651245,104.079224 
	C533.388184,104.178360 533.101257,103.987045 532.730469,103.544624 
	C532.973572,103.458611 533.300415,103.623695 533.651245,104.079224 
z"/>
<path fill="#F6ECEC" opacity="1.000000" stroke="none" 
	d="
M520.830688,106.192352 
	C530.265564,103.205383 535.064758,106.459229 536.308105,116.673920 
	C536.360291,117.492210 536.257385,117.928352 535.861023,118.858215 
	C534.610291,121.114655 533.652954,122.877396 532.695557,124.640129 
	C532.695557,124.640121 532.787781,124.791252 532.421692,124.753510 
	C531.704895,125.145470 531.354248,125.575172 531.003601,126.004898 
	C530.586792,126.136459 530.169983,126.268013 529.026855,126.429108 
	C526.487915,126.475174 524.675354,126.491692 522.862732,126.508217 
	C521.259583,124.897636 519.656372,123.287048 517.947021,120.992096 
	C516.050781,115.477066 517.647949,111.158821 519.863953,106.934189 
	C520.146240,106.769234 520.410156,106.578804 520.830688,106.192352 
z"/>
<path fill="#8C5A59" opacity="1.000000" stroke="none" 
	d="
M519.499695,106.938332 
	C517.647949,111.158821 516.050781,115.477066 517.766602,120.706970 
	C513.770569,117.072617 514.379150,111.099915 519.499695,106.938332 
z"/>
<path fill="#8C5A59" opacity="1.000000" stroke="none" 
	d="
M522.980713,126.795761 
	C524.675354,126.491692 526.487915,126.475174 528.737793,126.584763 
	C527.345764,130.034790 525.233154,128.736465 522.980713,126.795761 
z"/>
<path fill="#8C5A59" opacity="1.000000" stroke="none" 
	d="
M533.040649,124.701569 
	C533.652954,122.877396 534.610291,121.114655 535.864502,119.195129 
	C535.236145,120.946556 534.310974,122.854774 533.040649,124.701569 
z"/>
<path fill="#875454" opacity="1.000000" stroke="none" 
	d="
M488.494568,112.013428 
	C488.180511,111.680367 488.199097,111.276825 488.275055,110.572571 
	C489.394501,108.975525 490.456573,107.679176 491.813171,106.272644 
	C491.014221,108.089294 489.920715,110.016121 488.494568,112.013428 
z"/>
<path fill="#8B5758" opacity="1.000000" stroke="none" 
	d="
M502.879456,98.598434 
	C503.469727,97.944603 504.417908,97.432205 505.701233,96.980377 
	C505.103363,97.607262 504.170380,98.173569 502.879456,98.598434 
z"/>
<path fill="#E6C3C1" opacity="1.000000" stroke="none" 
	d="
M540.262085,136.279236 
	C540.380493,137.156204 540.122559,138.052765 539.589172,138.987915 
	C539.504395,138.117279 539.695129,137.208069 540.262085,136.279236 
z"/>
<path fill="#875454" opacity="1.000000" stroke="none" 
	d="
M486.712463,116.017433 
	C486.370636,115.729164 486.336700,115.315254 486.323303,114.586838 
	C486.697205,113.876266 487.050568,113.480202 487.639740,112.961624 
	C487.590485,113.856667 487.305389,114.874229 486.712463,116.017433 
z"/>
<path fill="#8C5A59" opacity="1.000000" stroke="none" 
	d="
M531.169067,126.243454 
	C531.354248,125.575172 531.704895,125.145470 532.350342,124.701065 
	C532.208252,125.284920 531.771423,125.883476 531.169067,126.243454 
z"/>
<path fill="#875454" opacity="1.000000" stroke="none" 
	d="
M491.817261,146.954407 
	C491.208862,146.733231 490.629791,146.171951 490.036621,145.294128 
	C490.630554,145.523163 491.238556,146.068741 491.817261,146.954407 
z"/>
<path fill="#FDFAF9" opacity="1.000000" stroke="none" 
	d="
M365.083679,339.000000 
	C365.084534,311.232544 365.084534,283.965088 365.084534,255.266479 
	C409.241943,278.143585 452.353821,300.479034 495.465668,322.814453 
	C495.614288,323.357056 495.762909,323.899628 495.911560,324.442230 
	C452.777069,346.819183 409.642578,369.196136 365.082855,392.312469 
	C365.082855,373.855316 365.082855,356.677673 365.083679,339.000000 
z"/>
</svg>